<?xml version="1.0" encoding="UTF-8"?>
<svg id="Layer_2" xmlns="http://www.w3.org/2000/svg" viewBox="0 0 226.68 221.07">
  <defs>
    <style>
      .cls-1 {
        fill: #41bfa1;
      }
    </style>
  </defs>
  <g id="Layer_1-2" data-name="Layer_1">
    <g>
      <path class="cls-1" d="M182.52,220.94c1.38.15,42.32.18,43.99.03.05-.24.14-.49.16-.75.03-.41,0-.83,0-1.24,0-40.9,0-81.8,0-122.7v-1.85c-14.58-7.41-29.12-14.81-43.67-22.2-.12-.06-.29-.05-.51-.08-.04.25-.1.47-.11.69-.19,5.03-.07,146.76.14,148.1Z"/>
      <path class="cls-1" d="M105.12,59.51c-.02,53.16-.01,106.32-.02,159.48,0,.6-.05,1.21-.08,1.91-.38.06-.68.13-.99.15-.37.03-.75,0-1.12,0-13.33,0-26.66,0-39.99,0h-1.94c-.09-.35-.21-.59-.22-.85-.03-.69-.02-1.37-.02-2.06,0-53.5,0-107.01,0-160.51v-2.62"/>
      <path class="cls-1" d="M121.52,122.62c14.7-7.68,29.25-15.29,43.81-22.89.08-.04.2,0,.41,0,.04.2.1.42.11.64.02.38,0,.76,0,1.13,0,39.15,0,78.29,0,117.44,0,.65.12,1.32-.11,1.91-.1.07-.14.1-.18.12-.05.02-.1.04-.15.05-.26.02-.53.04-.8.04-14.13,0-28.26,0-42.4-.01-.15,0-.31-.05-.55-.09-.05-.25-.13-.52-.15-.78-.03-.42,0-.85,0-1.27,0-31.45,0-62.9,0-94.35,0-.61,0-1.22,0-1.92Z"/>
      <path class="cls-1" d="M44.2,0c.06.39.13.65.13.92,0,72.99,0,145.99,0,218.98,0,.27-.08.54-.14.92-.2.08-.4.22-.6.22-14.44.01-28.89,0-43.42,0-.09-.66-.16-.93-.16-1.21C0,160.92,0,77.12,0,18.28c.33-1.13.94-1.41,1.44-1.9"/>
    </g>
  </g>
</svg>