<?xml version="1.0" encoding="UTF-8"?>
<svg id="Layer_2" xmlns="http://www.w3.org/2000/svg" version="1.1" viewBox="0 0 1315.8 842.8">
  <!-- Generator: Adobe Illustrator 29.2.1, SVG Export Plug-In . SVG Version: 2.1.0 Build 116)  -->
  <defs>
    <style>
      .st0 {
        font-family: monospace;
        font-size: 24px;
        font-weight: 700;
      }

      .st0, .st1 {
        isolation: isolate;
      }

      .st0, .st2 {
        fill: #fff;
      }

      .st3 {
        fill: #f42525;
      }

      .st4 {
        fill: #32a3ff;
      }

      .st5 {
        fill: #53a2c7;
      }

      .st6 {
        fill: #41cece;
      }
    </style>
  </defs>
  <g id="_x3C_delaware_x3E_">
    <path class="st4" d="M833.1,526.1c-.5.6-2.1,3.6-3.3,4.9-1.8,2.1-10.3,11.8-10.5,13.6,0,1.2,2.8,4,3.1,6.5.4,3.4-2.1,5.5-1.5,7.9.3,1.1,4.3,4.6,5.4,6.8s1.4,5.5,2.2,6.8c.4.7,1.7.2,2.4.7,8.7,6.9,1.5,16.3,3.8,23.9.5,1.7,3.4,2.4,4.6,4.3,1.9,3,2.4,8.5,4.3,12s9.6,11.7,13.4,8l1.8,1.2c0,10.5,3.2,21.9.9,32h-45.6l-4.1-57.8c-1.2-16.8-3.4-34.6-4.1-51.7,0-3-.5-7.5,0-10.2v-.8c3.9-11,17.4-13.3,26.9-8.1h.3,0Z"/>
    <path class="st2" d="M860.7,655.7h-47.3l-4.1-58.7c-.5-6.3-1.1-12.8-1.7-19.1-1-10.7-2-21.8-2.5-32.5v-1.5c0-2.9-.3-6.5,0-8.9h0v-1c1.7-4.7,5.1-8.2,9.9-10,5.5-2.1,12.2-1.7,17.7,1l1.2-1.3v4.2l-.7-.4c-.2.3-.4.7-.6,1-.7,1.1-1.5,2.4-2.2,3.2l-.3.4c-8.6,10-9.8,12.2-9.9,12.7,0,.3.6,1.2,1,1.8.9,1.3,1.9,2.9,2.1,4.4.2,2-.4,3.6-.9,4.9-.5,1.1-.8,2-.6,2.8,0,.3,1.2,1.5,1.9,2.3,1.3,1.4,2.8,3,3.4,4.4.6,1.3,1,2.8,1.3,4.1.3,1,.5,2,.8,2.6h.5c.5,0,1.2,0,1.8.5,5.9,4.7,5,10.6,4.2,15.8-.5,3.1-.9,6,0,8.6.2.6,1,1.1,1.8,1.6,1,.6,2,1.3,2.7,2.5,1.1,1.7,1.7,4.1,2.4,6.4.5,2,1.1,4.1,2,5.7,1.4,2.6,6.2,7.8,9.7,8.4.9,0,1.6,0,2.2-.6l.6-.6,2.9,2v.5c0,3.8.4,7.9.9,11.8.8,6.8,1.5,13.9,0,20.4l-.2.8v-.2h0ZM815.3,653.7h43.8c1.2-6,.5-12.6-.2-19-.4-3.8-.9-7.7-.9-11.5l-.7-.5c-.9.6-2,.8-3.2.6-4.3-.7-9.6-6.5-11.1-9.4-1-1.8-1.5-4-2.1-6.1-.6-2.3-1.2-4.4-2.1-5.8-.5-.7-1.3-1.3-2.2-1.9-1.1-.7-2.2-1.5-2.6-2.7-.9-3-.4-6.3,0-9.5.8-5.1,1.5-10-3.5-13.9h-.7c-.6,0-1.5,0-2-.9-.5-.8-.8-1.9-1.1-3.2-.3-1.2-.6-2.6-1.2-3.7-.5-1.1-2-2.7-3.1-3.9-1.4-1.6-2.2-2.4-2.4-3.1-.4-1.5,0-2.8.7-4.1.5-1.2,1-2.5.8-3.9,0-1.1-1-2.4-1.7-3.6-.8-1.2-1.4-2.2-1.4-3.1s1.4-3.4,10.4-13.8l.3-.4c.6-.7,1.4-1.9,2-3,.2-.3.4-.6.5-.9-4.9-2.3-10.9-2.6-15.7-.8-2.9,1.1-6.8,3.6-8.7,8.8h0v.7c-.4,2.2-.2,5.7,0,8.5v1.5c.4,10.7,1.5,21.7,2.4,32.4.6,6.3,1.2,12.9,1.7,19.2l4,56.9h0ZM829.5,572h0ZM807.2,534.5h0ZM807.2,534.4h0Z"/>
  </g>
  <g>
    <path class="st5" d="M772,610.7l-5,.3-1.6,6.2c-3.9-1.8-.4-13.6,2.4-15.1,3.2-1.7,4.7,6.5,4.1,8.6h0Z"/>
    <path class="st2" d="M766.2,618.7l-1.1-.5c-1-.5-2.2-1.7-2.3-4.7,0-4.2,2.2-10.8,4.7-12.2,1-.5,2.1-.4,3,.3,2.2,1.8,3.1,7.5,2.5,9.5l-.2.7-4.9.3-1.7,6.6h0ZM768.8,602.9h-.4c-1.4.8-3.8,6.2-3.7,10.4,0,.5,0,1.1.3,1.7l1.3-5,4.9-.3c0-1.8-.7-5.7-2-6.7-.2,0-.3-.2-.4-.2h0Z"/>
  </g>
  <g>
    <path class="st5" d="M842,702.7c-.5,1-.7,2.2-1.3,3.2-3.9,6.1-8.6-.5-5.3-2.8,1.2-.8,3.8.6,6.6-.3h0Z"/>
    <path class="st2" d="M837.3,709.4h-.6c-1.5-.3-2.8-1.6-3.2-3.2-.3-1.5.2-3,1.4-3.9.9-.6,2-.5,3.1-.3,1.1,0,2.4.3,3.7,0h1.8l-.6,1.3c-.2.4-.3.8-.4,1.2-.2.7-.5,1.4-.9,2.1-1.6,2.5-3.2,3-4.3,3h0v-.2ZM836.5,703.8h-.5c-.8.6-.7,1.4-.6,1.8.2.9.8,1.6,1.6,1.7.9.2,2-.6,2.9-2,.2-.4.4-.8.6-1.3h-3.9v-.2Z"/>
  </g>
  <g>
    <path class="st5" d="M787.5,702.7c-1.3-3.4,1.3-4,1.5-4.2.5-.9-2-3.6,1.4-3.9,3.9,2.5,1.5,8.4-2.8,8.1h-.1Z"/>
    <path class="st2" d="M788.5,708.3l-1.9-5.2c-.9-2.3-.4-4,1.4-5.2v-.4c-.2-.8-.6-1.9,0-2.8.4-.6,1.2-1,2.4-1.1h.6c2.1,1.4,3,3.8,2.2,6.1-.7,2.1-2.5,3.6-4.6,3.9v4.6h-.1ZM790.1,695.6c-.4,0-.5.2-.5.2,0,.2,0,.8.2,1.1.2.7.4,1.4,0,2s-.4.5-.7.6c-.6.3-1.3.7-1,2.2,1.5-.2,2.5-1.3,2.9-2.5.2-.5.6-2.3-1.1-3.5h.2,0Z"/>
  </g>
  <g>
    <path class="st5" d="M816.8,741.8c0,1-.2,4-1.6,4.1l-.8-4.5c.6-.5,1.6.5,2.4.4,0-1.2-2.2-6.1,2-4.9,2.3.7,1.3,4.6-2,4.9h0Z"/>
    <path class="st2" d="M814.4,746.9l-1.1-5.9.4-.4c.6-.5,1.2-.4,1.8-.3-.3-1.4-.5-3,.5-4s1.7-.8,3.1-.4c1.3.4,2.1,1.5,2,3s-1.3,3.2-3.3,3.7h0c-.2,2.7-1.1,4.1-2.5,4.2h-.9ZM815.6,742.6v.6c0-.2,0-.3.2-.5h-.2ZM817.7,737.8h-.3c-.3.3,0,2.1.2,2.6v.2c.9-.4,1.4-1.1,1.5-1.8,0-.7-.4-.8-.5-.9h-.9Z"/>
  </g>
  <g>
    <path class="st5" d="M847.7,17.2c-3.6,2.4-7.3,5.4-10.6,8.1-12.1,10.1-21.8,20.8-31.8,32.6-1.4,1.6-2.7,3.2-4.1,4.9-1.2-1.4,0-1.9.6-3,5-8.5,32.8-34.9,41.5-41l4.3-1.6h0Z"/>
    <path class="st2" d="M801.4,64.4l-.8-.9c-1.4-1.7-.4-2.9,0-3.6.2-.2.3-.4.4-.6,5-8.6,32.7-34.9,41.8-41.3h.2l4.3-1.8h5.7l-4.9,1.9c-3.6,2.4-7.2,5.4-10.4,8-11.6,9.7-21.1,20-31.6,32.4-.9,1.1-1.8,2.1-2.7,3.2l-2.1,2.6h0Z"/>
  </g>
  <g>
    <path class="st5" d="M903.9,1c-.5,2.5,1.2,1.6,2.8,1.6,21.4.7,43-.9,64.4,0,1.6,0,3.3-.8,2.8,1.6h-7.3c-.3-1.2-2.9-1.3-3.3,0h-2.4c-.8-1.3-3.1-.8-4.5-.8h-37.9c-8,0-16.5-.5-24.4,0h-.8c3.5-1.5,6.7-.3,10.6-2.4h0Z"/>
    <path class="st2" d="M972.1,5.2h-6.2l-.2-.8s-.3-.2-.8,0c-.4,0-.5.2-.6.2l-.2.7h-3.8l-.3-.5c-.3-.6-1.6-.5-2.6-.4h-48.3c-5,0-10.1-.2-14.9,0h-.8l-5.9.4,5.4-2.4c1.7-.7,3.4-.9,5-1,1.9-.2,3.6-.3,5.5-1.4h1.7l-.2,1.2v.6h1.9c10.4.4,21,.2,31.3,0,10.9-.2,22.1-.4,33.1,0h.9c.8,0,1.8-.2,2.4.5.6.7.5,1.7.4,2.3v.8h-2.8v-.2Z"/>
  </g>
  <g>
    <path class="st5" d="M960.9,4.2h13c3.2,0,8.8.6,11.4,0v.8l-58.6-.8h34.2,0Z"/>
    <path class="st2" d="M986.3,6l-59.6-.8v-2h51.3c2.6,0,5.5.3,7.1,0l1.2-.3v3.1h0Z"/>
  </g>
  <g>
    <path class="st5" d="M837.2,25.4c.6,1,1.1,1.9,2.4,1.6-5,4-7.5,7.5-11.8,11.4-3.5,3.3-17.8,15.2-18.8,18.6-.6,1.9.3,4.4-1.2,5.8.2-1.8-.2-3.9,0-5.7l-2.4.8c10-11.8,19.6-22.5,31.8-32.6h0Z"/>
    <path class="st2" d="M806.4,65.6l.4-2.9v-4.1l-4.5,1.5,2.3-2.7c10.7-12.6,20.2-23,31.9-32.7l.7.7.8-.5v.2c.8,1,.9,1.1,1.4,1l4.1-.9-3.3,2.6c-3,2.4-5.1,4.6-7.3,6.9-1.3,1.4-2.7,2.9-4.4,4.4-.8.7-2,1.8-3.5,3.2-4.6,4.1-14.3,12.6-15,15-.2.6-.2,1.3-.2,2.1,0,1.4,0,2.9-1.2,4.1l-2.1,2h-.1ZM836.9,26.9c-8.5,7.2-15.9,14.7-23.5,23.3,2.8-2.8,6.4-6,10.2-9.4,1.5-1.3,2.7-2.4,3.5-3.1,1.6-1.5,3-2.9,4.3-4.3,1.8-1.9,3.7-3.9,6.1-5.9-.2-.2-.4-.4-.5-.6h0Z"/>
  </g>
  <g>
    <path class="st5" d="M513.9,283.5l-.8,26.9c84.8,1.5,169.9.6,254.8.8v.8c-85.2,0-170.6.5-255.6-.8v-26.1c.1,0-.6-.4,1.6-1.6h0Z"/>
    <path class="st2" d="M655.5,313.1c-47.5,0-95.7-.2-143.2-.9h-1v-27.7h0c.3-.8,1.1-1.4,2.1-1.9l1.5-.8v1.8l-.8,25.9c57.6,1,116.4.9,173.2.8h81.6v2.8h-113.5.1Z"/>
  </g>
  <g>
    <path class="st5" d="M823.3,311.1c-.8,1.4-3.1.8-4.5.8-17,.2-34,0-50.9,0v-.8c18.4,0,37-.4,55.4,0h0Z"/>
    <path class="st2" d="M821,313.1h-2.1c-10.9.1-22,0-32.8,0h-19.1v-2.8h21.6c11.3,0,22.9-.2,34.3,0l6.4-6.7-5.1,8.3c-.7,1.2-2,1.4-3.2,1.4v-.2h0Z"/>
  </g>
  <g>
    <path class="st5" d="M960.9,4.2h-42.3v-.8c12.6-.2,25.3-.2,37.9,0,1.4,0,3.6-.5,4.5.8h-.1Z"/>
    <path class="st2" d="M961.9,7.7l-1.6-2.5h-42.8v-2.8h1c12.4-.2,25.2-.2,37.9,0h.9c1.3,0,3-.2,4,.9h.5v4.5h0Z"/>
  </g>
  <g>
    <path class="st5" d="M918.6,3.4v.8l-24.4-.8c7.9-.5,16.4,0,24.4,0Z"/>
    <path class="st2" d="M919.6,5.2l-25.5-.8v-2c4.9-.3,10.1-.2,15.1,0h10.4v2.8Z"/>
  </g>
  <g>
    <path class="st5" d="M966.6,4.2h-3.3c.3-1.3,3-1.2,3.3,0Z"/>
    <path class="st2" d="M965.5,5.2h-3.5l.3-1.3c.3-1,1.3-1.7,2.7-1.7s2.3.7,2.5,1.7l.3,1.2h-2.3Z"/>
  </g>
  <g>
    <path class="st5" d="M577,224v.8c.5-.3.5-.5,0-.8Z"/>
    <path class="st2" d="M576,226.5v-4.1l1.5.7c.8.4.9.9.9,1.3s-.2.9-.9,1.3l-1.5.7h0ZM576.6,223.9s0,.2,0,.5.2.5.2.5l.2-.5-.3-.5h0Z"/>
  </g>
  <g id="_x3C_newYork_x3E_">
    <path class="st4" d="M1094.1,402.4c-4.5.8-11.3,9.5-16.2,6.4-1.6-1-1.3-3.1-5.1-3.1s-4.6,3.9-8.5,3.2c3.8-3.6,2.1-8-2.7-8.9l-2.1,3.5,3.6,2.9c1.8,3.3-2.9,3.8-4.6,5.2-3.2,2.7-2.3,7.1-8.5,7.8-2.5.3-7.5.6-9.4-1.2,0-1.8,13.4-8.5,15.5-10.6,1.4-1.4,0-1.8,0-2-.6-1-1.1-1.9-2.4-1.6-5.4,3.7-11.1,7.4-17.6,8.9l-31.7.9c-3.7.6-2.2,4.3-2.9,4.8l-23.8.9-2.7,3.2c-2.3.5-1.3-4.6-7.1-3-4.3,1.1-3.9,4.4-3,8l-5.4-4.7-6.8,2.2c-1.5-1.5,9.5-12.6,11.4-13.8l-3.9-10.9,15-12.8-2.1-4.9c1.3-25,3.2-49.9,3.3-74.9v-.8h3.3c.4-2.3-1.9-3.7-2.4-5.7v-.8c2.1.5,1.7-1.1,2-2.4,1.2-4.7,4.3-13.6,4.5-17.5,0-1.5.7-3.3-1.7-2.8,0-.5.7-1.1.8-1.6,2.5.7,3.6-6.6,2.4-8.1.3-1.1-.2-2.9.8-4.1,3.7-.2,3-6.1,3.3-9,0-.6-.3-1.4,0-3.3,2.8,0,3.9-6.7,4.1-8.6.2-1.5.7-3.3-1.6-2.8.2-.8.3-1.7.8-2.4l.8-.8v-2.4c0-.1.7-.5.7-1.2,0-2.3-1.3-5.1-.7-7.8h-1.6v-4.9l1.6-.5v-9.3h-1.7v-.8c0-2.9.7-5.9.8-8.1,2.5.4,1.6-1.2,1.6-2.8v-5c0-1.6.8-3.3-1.6-2.8,0-3.1.7-5.9.8-9l1.6-.5v-3.6h-1.7c0-2.1.7-4.1.8-5.7l1.6-.5v-5.2h-1.7v-3.2c3.5,0,2.7-5.5,2.4-7.7-1-7.3-5.1-9.2-11.1-12.1-1.2-1.3-.3-2.6-.2-3.9.4-.2,1.5.5,1.7-.5,1.3-2.8.3-4,0-6-1-6-2.6-12-4.1-17.9-2.5-10.2-5.9-14.4-.6-25.4,1-2.1,4-5.2,4.5-6.9,2.1-7.9-5.8-15.6-4.7-23.4.3-1.7,1.8-3.2,1.6-4.9,0-1.3-3.1-4.2-3.7-7.7-2.2-12.3,2.2-13.3,4.3-22.7,1.4-6.4,1-13.2,1-19.7l-58.6-.8h-8.1l-24.4-.8h-.8c-.9,0-3.6,1.3-5.4,1.5-3.5.4-7.8-.5-10.9.5-2.1.7-3.7,3.5-5.9,4.7-11.9,6.5-19.6,7.5-31.5,16.9-5,4-7.5,7.5-11.8,11.4-3.5,3.3-17.8,15.2-18.8,18.7-.6,1.9.3,4.4-1.2,5.8-.5,3.2-7.9,11.2-11,11.3-1.1,0-2.2-.7-3.9-.6-6.8.7-2.2,4.6-2.6,6.4-1.3,6-22.7,9.4-25.3,17.8-1.5,4.7,2.3,3.7,3.3,5.7.8,1.7,0,4,.6,5.9,1.3,5.9,5.8,1.4,5.5-2.7-7,1.1-2.9-7.5,1.3-4.2,2.9,2.4-.4,9.1.3,9.8,2.3,1.7,9-3.3,9.8-2.4,1.6,1.7-2.2,3.1-2.8,4.1-2,2.9-.9,6.5-5.8,7.3-2,.3-6-.8-6.8,1.4-1,3,4.1,9.1,5.2,12.5.6,1.8,0,3.6.5,5.1.5,1.6,2.2,2.9,2.2,4.2s-1.7,3.5-2.2,5.1c-.5,1.9-.8,5.6-1.5,6.7-2.1,3.5-13.1-.1-17.7,3.2-1,.8-1.4,2.4-2.6,3.3-5.7,4.2-14.4,7.2-15.1,15.4-5.8-3.7-5.3,0-8.8,1.4-1.8.7-6.4.6-7.6,1.4-1.1.8-.4,3.6-2,4.5-7-4.4-17-4.6-25.2-4.1-5.4.3-14.5,3.5-18.7,3.3-3.2-.1-9-4.2-12.4-5.6-35.9-13.7-62.7-5.8-97.9,3.9-.5.3-1.3,1.6-1.6,1.6,3.2,7.1-4.5,16.3,3.3,20.1-2.1,8-1.4,7.5,4.8,10.1,2.9,1.2,1,1.5,1.8,2.3.7.6,3.9-.4,5.2,3,.9,2.2-3.5,6.1-2.1,9.4,1.9,6.1-2,5.2-5.3,8.1-5,4.4-12.1,16-15.9,18.3-2.9,1.7-6.3,1.3-9.2,3-3.7,2.1-7,7.9-10.1,10.5-5.8,5-16.9,9.9-23.8,13.8l-.8,26.9c84.8,1.5,169.9.6,254.8.8,18.4,0,37-.4,55.4,0,6.2.1,17.5-1.5,20.8,5.7,1.1,2.5-.6,6.5,1.6,8.2l10.9,1.7c0,3.4,4.4,6.8,4.9,8.5,1.3,4.2-1.4,10.9-.6,16.1.2.9,4,10.6,4.4,11.1,1.4,1.5,3-.2,5.1.5,1.9.7,3.3,3.7,4.9,4.1,5.3,1.5,7.9-1.5,10.8,6.7l58.6,36.6c.7,2.2.9,4.2.8,6.5l2.4,4.1h0l-2.4-4.1c-.2,3.9-3.9,15.1-6.5,17.9-.3,2.7,4,2,3.2,5.1-1.2,3.4-4.9,2-6.4,4.6.3,1.4-.4,3.3,0,4.8,2.5.7,9.2,2.8,11.3,1.4,1.4-.9,1.1-6.6,5.2-6.2,1.4.1,4.5,3,3.7,4.1l-6.5,3.3c3.3,0,6-1.5,9.3-1.6,3.3-.2,6,.9,8.8.8,4-.1,8.7-2.4,12.8-2.4.9-2.9-3.1-.3-4.1-1.6v-2.4c3.6,1.2,12.3-4.4,14.6-2.9,2.2,1.4-1.3,3.4-.8,3.7l3.7-1.6c-2.1-6.6,5.7-4.8,11-6.1,8.3-2.1,19.5-6.6,27.6-8.1,2-.4,3.9,1.3,6.6.9.7-.1,5.4-2,5.5-2.3.5-.8-.2-2.3.2-3s3.2-.6,4.2-1.1c1.5-.8,1-3.2,4.1-2.2.8.2-.2,2.6,4.6,1.2,6.8-1.9,22.7-10.1,29.3-13.8,1.7-1,8.4-4.5,8.9-5.7.3-1.7-.8-1.4-2-1.2h.6ZM783.4,106c1.2,0,1.9-.6,2.3-1.6-.4,1-1.1,1.7-2.3,1.6ZM786.7,100.3l-2.4,3.2,2.4-3.2h0Z"/>
    <path class="st2" d="M949.7,453h-4.3l9.6-4.9c-.4-.8-2.1-2.4-2.9-2.5-1.8-.2-2.4,1.2-3.1,3.4-.4,1.1-.7,2.1-1.4,2.6-2.1,1.4-6.5.3-11-.9-.5-.1-.9-.2-1.2-.3h-.5c0-.1-.2-.7-.2-.7-.3-1-.2-2.1-.2-3.1v-2.5c1-1.5,2.4-2,3.7-2.4,1.5-.5,2.3-.8,2.8-2.1.2-.8,0-1-1.1-1.6-.9-.5-2.3-1.4-2.1-3.3v-.3l.3-.2c2.3-2.5,6.1-13.5,6.2-17.3h0c0-2.2,0-4-.7-5.8l-58.6-36.6v-.3c-2-5.2-3.5-5.3-6.2-5.5-1.2,0-2.5-.1-4.1-.6-1.1-.3-2-1.3-2.8-2.3-.7-.8-1.4-1.6-2.2-1.9-.7-.3-1.3-.1-2,0-1,.2-2.3.4-3.5-.8-.7-.7-4.6-10.8-4.7-11.6-.4-2.6,0-5.5.4-8.3.4-2.9.8-5.7.2-7.7,0-.4-.8-1.3-1.5-2-1.4-1.7-3.1-3.7-3.4-5.9l-10.3-1.7-.2-.2c-1.6-1.3-1.6-3.4-1.5-5.3,0-1.2,0-2.4-.3-3.3-2.5-5.5-10.6-5.3-16.6-5.1h-3.3c-11.5-.2-23.3-.2-34.7,0h-101.2c-57.1,0-116.2.2-174.2-.8h-1l.9-28.5.5-.3c1.9-1.1,4.2-2.2,6.6-3.5,6.1-3.1,13-6.7,17.1-10.2,1.2-1,2.4-2.5,3.7-4.1,2-2.5,4.2-5.1,6.5-6.4,1.6-.9,3.3-1.3,4.9-1.6,1.5-.3,3-.6,4.3-1.4,1.9-1.1,4.9-5.1,7.9-8.9,2.7-3.5,5.5-7.2,7.9-9.3,1-.9,2.1-1.5,3-2,2.1-1.1,3-1.6,2-5.1-.9-2.2.2-4.5,1.1-6.4.6-1.1,1.2-2.4,1-2.9-.7-1.8-2-2-3.2-2.1-.7,0-1.3-.1-1.7-.6-.6-.6-.5-1.2-.5-1.6,0,0-.4-.3-1-.5-.5-.2-1-.4-1.4-.6-5.5-2.2-6-3.1-4.2-9.9-4.4-2.6-3.7-7-2.9-11.3.5-3,1.1-6.2,0-8.9l-.5-1.1,1-.2c0-.1.4-.4.5-.6.3-.4.6-.7.9-.9h0c0-.1,2.5-.8,2.5-.8,34-9.3,60.8-16.7,96.2-3.2,1.3.5,3,1.4,4.7,2.3,2.6,1.4,5.6,3.1,7.4,3.2,2.1,0,5.7-.8,9.3-1.6,3.3-.8,6.7-1.6,9.3-1.7,7.2-.5,17.6-.5,25.1,3.8.2-.3.3-.8.4-1.5.2-.9.3-2,1.2-2.6.8-.6,2.1-.7,4.3-.9,1.3-.1,2.8-.3,3.5-.6.9-.4,1.5-.9,2.1-1.5,1.5-1.5,2.9-2.4,6.3-.6,1.2-5.9,6.5-9.1,11.2-12,1.5-.9,2.9-1.8,4.1-2.7.5-.4.8-.9,1.2-1.5s.8-1.3,1.4-1.8c2.6-1.9,6.7-1.8,10.4-1.8s6.3,0,7.1-1.2c.3-.5.6-2.1.8-3.4.2-1.1.4-2.2.6-3,.2-.8.7-1.7,1.2-2.5s1-1.8,1-2.3-.4-1-.9-1.6c-.5-.7-1.1-1.5-1.3-2.4-.2-.8-.2-1.7-.2-2.6s0-1.7-.3-2.5c-.4-1.1-1.2-2.6-2.2-4.2-1.9-3.2-3.9-6.6-3.1-9,.8-2.3,3.6-2.1,5.6-2h2c2.6-.4,3-1.7,3.6-3.6.3-1,.7-2.2,1.5-3.3.3-.4.8-.8,1.4-1.2.4-.3,1.4-.9,1.6-1.3-.5.2-1.4.6-2,.9-2.7,1.3-5.8,2.7-7.7,1.4h0c-.7-.7-.4-1.8,0-3.5.5-2.1,1.2-5.2-.2-6.4-1.1-.9-1.9-.6-2.5-.2-.7.5-1.1,1.5-.9,2,.2.5,1.2.7,2.5.5l1.1-.2v1.1c.2,3-1.8,6.3-3.9,6.6-.8.1-2.7,0-3.5-3.6-.2-.9-.2-1.9-.2-2.8s0-2.1-.3-2.9c-.2-.4-.7-.7-1.3-.9-1.3-.7-3.3-1.7-2.1-5.5,1.5-4.9,8.3-8,14.9-10.9,4.9-2.2,9.9-4.5,10.4-6.8,0-.2-.3-.9-.5-1.4-.5-1.2-1.1-2.6-.4-3.9.6-1.1,2-1.7,4.3-2,1.1,0,2.1,0,2.8.3.5,0,.8.2,1.2.2,2.4,0,9.6-7.6,10-10.4v-.3l.3-.2c.6-.6.6-1.5.6-2.7s0-1.8.3-2.7c.8-2.7,7.8-9.1,15.6-15.9,1.5-1.3,2.8-2.4,3.5-3.1,1.6-1.5,3-2.9,4.3-4.3,2.2-2.3,4.4-4.6,7.5-7.1,7.7-6.1,13.8-8.8,20.1-11.5,3.6-1.6,7.3-3.2,11.5-5.5.9-.5,1.7-1.3,2.5-2.1,1.1-1.1,2.2-2.2,3.6-2.7,2-.6,4.4-.5,6.7-.5h4.4c.9,0,2.2-.5,3.2-.9,1.1-.4,1.7-.6,2.2-.6h.8l24.4.8h8.1l59.6.8v5.3c0,5.2,0,10.6-1.1,15.7-.7,3.3-1.7,5.6-2.6,7.7-1.7,3.8-3,6.8-1.6,14.6.3,1.9,1.5,3.7,2.4,5.1.7,1.1,1.3,1.9,1.3,2.7,0,1.3-.4,2.4-.9,3.3-.3.6-.6,1.2-.7,1.8-.5,3.4.9,6.9,2.4,10.5,1.7,4.2,3.5,8.5,2.3,13-.3,1.1-1.3,2.5-2.4,4-.8,1.1-1.7,2.2-2.1,3.1-4.1,8.5-2.9,12.6-.9,19.3.5,1.6,1,3.4,1.5,5.4l.7,2.9c1.2,4.9,2.5,10,3.4,15.1,0,.4.2.8.3,1.3.4,1.4.8,2.8-.3,5.2,0,.6-.5,1.3-1.8,1.3v.2c-.2.8-.3,1.3,0,1.8h0c6.1,2.9,10.5,5,11.5,12.8v.2c.3,2,.8,5.7-.9,7.6-.4.5-.9.8-1.5.9v1.4h1.6v6.9l-1.7.5c0,.6-.2,1.3-.3,1.9,0,.7-.3,1.3-.3,2h1.5v5.3l-1.7.5c0,1.3-.2,2.5-.4,3.8,0,1.1-.3,2.2-.3,3.4.4,0,.8.2,1.1.5.7.6.6,1.6.5,2.4v6.8c0,.8.2,1.8-.5,2.4-.4.3-.8.5-1.2.5,0,.8-.2,1.6-.3,2.5-.2,1.4-.4,2.9-.4,4.4h1.6v11l-1.6.5v3.1h1.9l-.3,1.2c-.3,1.5,0,3.1.3,4.6.2,1,.4,2,.4,2.9s-.4,1.3-.7,1.6v.6h0v1.8l-1,1c0,.2-.2.5-.3.8.3,0,.6.2.9.5.8.8.7,1.9.5,3v.5c-.2,1.5-1,8.3-4.2,9.3v4.3c0,3-.2,7.4-3.6,8-.2.5-.2,1.1-.3,1.8v1.2c.9,1.9.3,6-1,8-.5.7-1,1.1-1.4,1.2,0,0,0,.1.2.2.8.7.7,1.8.6,2.8v.7c-.2,2.8-1.7,7.8-3,12.3-.6,2-1.2,4-1.6,5.5v.8c0,.7-.2,1.6-.9,2.1-.2.2-.5.3-.8.3.2.4.5.9.8,1.3.8,1.2,1.7,2.5,1.4,4.3v.8h-3.2c0,19.2-1.2,38.7-2.3,57.5-.3,5.7-.7,11.4-1,17l2.3,5.3-15,12.8,4,11-.7.4c-1.8,1.2-8.7,8.4-10.6,11.5l5.7-1.9,3.7,3.2c-.2-2.5.4-5.2,4.3-6.3,4.3-1.1,5.6,1,6.4,2.3.2.4.4.6.5.7l2.6-3.2,23.5-.9v-.3c0-1.3.2-4,3.5-4.6h0l31.6-.9c6.3-1.5,11.9-5.1,17.1-8.7h.2c0-.1.2-.2.2-.2,2-.4,2.8.9,3.4,1.9h0c.3.3.8.8.8,1.5s-.2,1.3-.9,1.9c-.9.9-3.6,2.5-6.7,4.3-2.6,1.6-6.8,4.1-8.2,5.3,1.5.7,4.4.9,7.9.5s4.3-2,5.4-4c.6-1.2,1.3-2.5,2.5-3.5.6-.5,1.3-.9,2.2-1.2,1-.5,2.2-1,2.4-1.7,0-.2,0-.6-.2-.9l-4.1-3.3,2.9-4.9h.7c2.7.6,4.8,2.2,5.4,4.3.4,1.5.2,3-.6,4.5.5-.2,1-.6,1.6-1.1,1.2-.9,2.5-1.9,4.6-1.9s0,0,0,0c3.1,0,4,1.3,4.7,2.3.3.4.5.7.9,1,2.5,1.6,6-.8,9.3-3.2,2.2-1.6,4.3-3,6.2-3.4h0c.9-.2,1.9-.3,2.6.4.7.7.5,1.7.4,2v.2c-.5,1-2.6,2.5-8.6,5.8l-.8.4c-7,3.9-22.8,12-29.5,13.9-3.1.9-4.7.5-5.4-1.3h0c-1-.3-1.2,0-1.6.7-.3.5-.7,1.2-1.5,1.6s-1.4.4-2.3.6c-.5,0-1.2.2-1.5.3v.7c0,.7,0,1.5-.3,2.2-.5.8-6.2,2.7-6.2,2.7-1.7.3-3.1-.1-4.3-.5-.9-.3-1.7-.5-2.3-.4-4.6.8-10.2,2.7-15.6,4.5-4.3,1.4-8.3,2.7-11.9,3.6-1.5.4-3.1.5-4.7.6-2.4.2-4.9.4-5.6,1.5-.4.6-.4,1.5,0,2.7l.3.9-5,2.2-.8-.5v-.5c-.2-.6.2-1,.7-1.5s.9-.9.8-1.2c0,0,0-.1-.3-.3-.7-.5-3.8.6-5.8,1.4-2.6.9-5.3,1.9-7.3,1.8v.7c.3,0,.8,0,1.1-.1,1-.1,2-.3,2.7.5.6.7.3,1.8.2,2.1l-.2.7h-.7c-2,0-4.2.6-6.4,1.2-2.1.6-4.3,1.2-6.3,1.2s-2.8-.2-4.1-.4c-1.5-.2-3.1-.5-4.7-.4-1.4,0-2.7.4-4.1.8-1.6.4-3.2.9-5,.9v.4h0ZM936.6,448.7c.2,0,.4.1.6.2,2.3.6,7.8,2.2,9.3,1.2.2-.2.5-1,.7-1.6.6-1.9,1.7-5.1,5.2-4.7,1.5.2,3.8,2.2,4.5,3.7.5,1,.2,1.7,0,2v.2l-.5.2c.8-.2,1.6-.3,2.5-.4,1.9-.1,3.6.2,5.2.4,1.3.2,2.5.4,3.7.4,1.8,0,3.8-.6,5.9-1.1.9-.2,1.8-.5,2.7-.7-.3-.1-.5-.3-.7-.6l-.2-.2v-4.1l1.3.5c1.5.5,4.6-.6,7.3-1.6,3.4-1.2,6-2.2,7.6-1.2.5.3.8.7,1,1,0-.9.2-1.6.6-2.3,1.3-1.9,4.1-2.1,7.1-2.4,1.5-.1,3-.2,4.4-.6,3.5-.9,7.5-2.2,11.7-3.6,5.5-1.8,11.2-3.7,15.9-4.6,1.1-.2,2.2.1,3.3.4s2.2.6,3.4.4c.6-.1,3.9-1.5,4.9-2v-.8c0-.7,0-1.4.3-2,.5-.7,1.5-.9,2.9-1.1.6,0,1.4-.2,1.7-.4.3-.1.4-.4.7-.8.7-1.2,1.6-2.2,4.1-1.5.7.2.9.8,1.1,1.1,0,.4.3.9,3,0,6.6-1.9,22.2-9.9,29.1-13.8l.8-.5c4.5-2.5,7.1-4.1,7.6-4.7-.2,0-.5,0-.7.1h-.2c-1.5.3-3.3,1.6-5.3,3-3.7,2.6-7.9,5.5-11.5,3.2-.7-.4-1.1-1-1.5-1.5-.6-.8-1-1.4-3.1-1.5-1.4,0-2.3.7-3.4,1.5-1.3,1-2.8,2.2-5.3,1.7h-.4c-.7.7-1.8,1.2-2.8,1.6-.7.3-1.3.6-1.7.9-1,.8-1.5,1.9-2.1,3-1.1,2.1-2.4,4.5-6.9,5.1-2.9.3-8,.6-10.2-1.5l-.3-.3v-.4c0-1.4,2.3-3,9.5-7.3,2.7-1.6,5.5-3.3,6.3-4,0-.1.2-.2.3-.3h0c-.2-.2-.4-.3-.5-.5h0c-.6-1-.7-1.2-1.1-1.1-5.1,3.5-11.1,7.4-17.7,8.9h-.2l-31.6.9c-1.6.3-1.7,1.2-1.8,2.7,0,.8,0,1.5-.7,2l-.2.2h-.3l-23.3.9-2.6,3.2h-.3c-1.6.4-2.3-.8-2.8-1.6-.7-1.2-1.4-2.2-4.2-1.4-3.2.9-3.3,2.9-2.3,6.8l.8,3.1-7.4-6.4-6.8,2.2-.4-.4c-.2-.2-.5-.6-.4-1.3.3-2.9,8.6-11.3,11.3-13.6l-3.9-10.8,15-12.7-1.9-4.4v-.2c.3-5.8.6-11.5,1-17.3,1.1-18.9,2.2-38.4,2.3-57.6v-1.8h3.2c-.2-.7-.6-1.3-1.1-2s-1-1.5-1.3-2.4v-.8h0c0-.1-.3-1.6-.3-1.6l1.5.4h.6v-.7c0-.3,0-.7.2-1,.4-1.5,1-3.5,1.6-5.5,1.3-4.3,2.8-9.2,2.9-11.8v-1.8h-.6l-1.6.3.4-1.6c0-.4.3-.8.5-1.1,0-.2.3-.4.3-.5l.3-1,1,.3c.2,0,.5-.3.6-.5,1.1-1.7,1.3-5.5.8-6.1l-.3-.4v-.5c.2-.3.2-.7.2-1.1,0-1,0-2.3.9-3.3l.3-.3h.4c1.9-.1,2.2-2.9,2.2-6.1v-2.4c0-.6-.2-1.4,0-2.8v-.9h1c1.3,0,2.7-4,3-7.7v-1.7h-.6l-1.6.3.4-1.6v-.6c.2-.7.3-1.5.8-2.2h0c0-.1.5-.7.5-.7v-.5h0v-.9h0v-.6c0-.4.3-.7.5-.8,0,0,.2-.2.2-.3,0-.7-.2-1.6-.4-2.6-.3-1.3-.6-2.8-.5-4.2h-1.4v-6.7l1.6-.5v-7.5h-1.6v-1.8c0-1.7.3-3.4.5-4.9.2-1.2.3-2.3.3-3.3v-1.2l1.2.2h.6v-8.7h-.6l-1.2.2v-1.3c0-1.6.3-3.2.5-4.6.2-1.5.3-2.9.4-4.3v-.7l1.6-.5v-1.8h-1.7v-1c0-1.2.3-2.3.5-3.4.2-.8.3-1.6.3-2.3v-.7l1.6-.5v-3.5h-1.7v-5.2h1c.6,0,.8-.2,1-.4,1-1.1.6-4.5.4-6v-.2c-.9-6.7-4.5-8.4-10.4-11.2l-.4-.2h0c-1.2-1.5-.9-2.9-.6-3.9,0-.3.2-.6.2-.9v-.6l.6-.2c.4-.1.8,0,1.1,0h0c.8-1.8.6-2.7.2-3.9,0-.4-.3-.9-.4-1.5-.8-5-2.1-10.1-3.3-15l-.7-2.9c-.5-2-1-3.7-1.5-5.4-2-6.7-3.4-11.5,1-20.7.5-1.1,1.4-2.3,2.3-3.4.9-1.2,1.9-2.6,2.1-3.3,1-3.9-.5-7.7-2.2-11.7-1.5-3.7-3.1-7.6-2.5-11.6,0-.9.5-1.7.9-2.4.4-.8.8-1.5.7-2.2,0-.3-.6-1.2-1-1.8-1-1.5-2.3-3.5-2.7-5.9-1.5-8.4,0-11.8,1.8-15.8.9-2.1,1.8-4.2,2.5-7.3,1.1-4.9,1.1-10.1,1-15.2v-3.3l-57.6-.8h-8.1l-24.4-.8h-.8c-.2,0-1.1.3-1.7.5-1.2.4-2.5.9-3.7,1-1.5.2-3.1,0-4.7,0s-4.4-.2-6.1.4c-.9.3-1.8,1.2-2.8,2.2-.9.9-1.8,1.8-2.9,2.4-4.3,2.4-8.1,4-11.7,5.6-6.3,2.7-12.2,5.3-19.7,11.3-3,2.4-5.1,4.6-7.3,6.9-1.3,1.4-2.7,2.9-4.4,4.4-.8.7-2,1.8-3.5,3.2-4.6,4.1-14.3,12.6-15,15-.2.6-.2,1.3-.2,2.1,0,1.3,0,2.7-1,3.8-.9,3.7-8.3,11.7-11.8,11.8-.6,0-1.2,0-1.8-.3-.7-.2-1.3-.4-2.1-.3-2.2.2-2.7.8-2.8,1-.2.4,0,1.3.5,2.1.4.9.8,1.7.6,2.6-.7,3.3-5.7,5.6-11.5,8.2-5.9,2.7-12.6,5.7-13.8,9.7-.7,2.2,0,2.5,1.1,3.1.7.4,1.7.8,2.2,1.9.2.5.4,1,.5,1.5,0-1.1.7-2.2,1.7-3,1.5-1.1,3.4-1.1,5,.2,2.4,2,1.5,5.8.9,8.4,0,.5-.3,1.2-.3,1.6,1.2.3,3.8-1,5.4-1.7,2.2-1,3.4-1.6,4.2-.7.6.7.7,1.3.7,1.8,0,1.3-1.4,2.2-2.5,2.9-.3.2-.8.6-.9.7-.6.8-.9,1.7-1.2,2.7-.6,2.1-1.4,4.4-5.2,5-.7.1-1.5,0-2.4,0-1.5,0-3.4-.2-3.6.7-.5,1.5,1.4,4.7,2.9,7.3,1,1.7,1.9,3.2,2.3,4.5.4,1.1.4,2.2.4,3.2s0,1.4.2,2,.6,1.2,1,1.8c.6.8,1.2,1.7,1.2,2.7s-.6,2.2-1.2,3.4c-.4.7-.8,1.5-1,2.1-.2.7-.4,1.8-.5,2.8-.3,1.8-.5,3.3-1,4.1-1.3,2.2-4.8,2.2-8.8,2.1-3.3,0-7.1,0-9.2,1.4-.3.2-.6.7-.9,1.2-.4.7-.9,1.5-1.7,2.1-1.3,1-2.8,1.9-4.3,2.8-4.9,3-9.9,6.1-10.4,12v1.6l-1.5-.9c-3.4-2.1-4-1.6-5.1-.4-.6.6-1.4,1.4-2.7,1.9-1,.4-2.5.6-4,.7-1.2.1-2.9.3-3.3.6-.2.1-.3.8-.4,1.3-.2,1.1-.4,2.5-1.7,3.3l-.5.3-.5-.3c-7.1-4.5-17.5-4.4-24.6-3.9-2.5.2-5.8.9-9,1.7-3.8.9-7.5,1.7-9.8,1.6-2.2-.1-5.3-1.8-8.3-3.4-1.7-.9-3.2-1.8-4.5-2.2-34.8-13.2-61.4-6-95,3.3l-2.1.6c0,.1-.3.4-.5.5-.2.2-.3.4-.4.5,1.1,3.1.5,6.4,0,9.3-.8,4.7-1.1,7.7,2.5,9.5l.7.4-.2.8c-1.1,4.3-.2,7.1,2.8,8.3.4.2.9.4,1.4.6,1.5.6,2.4,1.3,2.2,2.4h.4c1.3.1,3.8.4,4.9,3.4.5,1.4-.2,2.9-1,4.5-.8,1.7-1.7,3.4-1.1,4.8h0c1.6,5.2-.7,6.4-2.9,7.6-.9.5-1.8.9-2.6,1.7-2.2,2-5,5.6-7.7,9-3.2,4.1-6.2,8.1-8.4,9.4-1.6.9-3.3,1.3-4.9,1.6-1.5.3-3,.6-4.3,1.4-2,1.2-4,3.6-6,6-1.4,1.7-2.7,3.3-4,4.4-4.3,3.7-11.3,7.3-17.5,10.5-2.2,1.1-4.2,2.2-6,3.2l-.8,25.3c57.6,1,116.4.9,173.2.8h101.2c11.4,0,23.2-.2,34.8,0h3.2c6.5-.1,15.4-.3,18.4,6.3.6,1.3.5,2.7.5,4.2s0,2.8.6,3.5l11.5,1.8v.9c0,1.8,1.6,3.8,3,5.5.9,1.1,1.6,1.9,1.9,2.7.7,2.4.3,5.4-.2,8.5-.4,2.6-.8,5.4-.4,7.7.2.9,3.6,9.6,4.2,10.6.3.3.6.3,1.6.1.8-.2,1.9-.4,3.1,0,1.2.5,2.1,1.5,2.9,2.5.7.7,1.3,1.5,1.9,1.7,1.4.4,2.5.5,3.7.5,3.4.2,5.5.6,7.7,6.5l58.6,36.7v.3c.8,2.1,1.1,4.1,1,6.6l2.3,3.8-1.7,1-1-1.7c-1,4.9-3.8,12.6-6.1,15.4,0,.4.4.6,1.1,1.1,1,.6,2.6,1.5,2,3.9-.8,2.4-2.6,2.9-4.1,3.4-1.1.3-1.8.6-2.3,1.2v3.8h0ZM1060.8,403.2l3.1,2.5v.2c.3.4.5.8.6,1.2.8-1.1,1.1-2.3.8-3.4-.4-1.3-1.5-2.2-3.2-2.7l-1.3,2.2h0ZM994.5,234.6h0ZM564.7,184.1h0ZM769.8,105.8v3.5c.3,1.3.8,2.1,1.3,2.1.8-.1,2-1.6,2.2-3.4-2.3,0-3.2-1.1-3.5-1.8v-.4h0ZM783.6,107h-.3v-2c.7,0,1.1-.1,1.5-1h0l-1.5-1.1,2.4-3.2,1.6,1.2-2.4,3.2,1.6.7c-.7,1.8-2,2.2-3.1,2.2h.2Z"/>
  </g>
  <g>
    <rect class="st5" x="986.1" y="445.5" width="3.2" height=".8"/>
    <rect class="st2" x="985.1" y="444.5" width="5.2" height="2.8"/>
  </g>
  <g>
    <path class="st5" d="M836.3,696.2c-4.6,1.7-16.5-.6-18.7,4.1-.3.7.3,2.3-1.1,3.3-1.6,1.2-4,0-5.4,2l4.8,7.3c-1.4,2.2-2.4,0-4-.4,0,1.6.5,5-1.2,5.7l-4.5-1.6c2.8,5.2-2.5,4.7-3.7,7.3-.8,1.8,0,3.7-.5,5.2-.4,1.4-2.8,1.5-3,2.6-.2.8,1,2.5.7,2.8s-1.6-.3-2.2.2c-.6.4-4.2,13.2-4.3,14.2,0,3.1,2.6,2.5,2.4,3.2-7.8,8.6-7,18.2-2,28.1,3.3,0,1.1-13.8,4.1-16.3l1.2,14.7c1.1,1.2,6.8-5.2,5.7-7.3l-4,2.4c.7-4.2.2-7.6,0-11.4h-2.4c-1.3-5.5,5.5-7.1,6.6-8.7,1.5-2.4,0-6.7,1.1-8.5l3.7-.3c1.4-1.1-.2-5.8,4.9-4.6l-.8-3.6c1-1.7,1.8-1.1,3.2-.5-2.2-6.6,3.1-2.3,4.1-3.3.6-2.4-1.1-5.1-.5-7.3.2-.7,7.5-10.2,8.7-11.8,1.3-1.7,3.1-2.9,4.5-4.5l-2-5.9c2.8-2.2,3.3-4.5,4.8-7.1h-.2,0Z"/>
    <path class="st2" d="M793,781.1l-.3-.6c-5.6-11.2-5.2-20.4,1.4-28.3-.9-.4-2-1.3-1.9-3.5,0,0,3.4-14,4.7-15,.4-.3,1-.4,1.5-.4-.3-.7-.5-1.3-.4-2,.2-1,1.1-1.5,1.9-1.8.5-.3,1.1-.5,1.2-.9.2-.5,0-1.2,0-1.8,0-1,0-2.2.5-3.4s1.6-1.9,2.6-2.5c1.6-1,2.4-1.5,1.1-4l-1.2-2.3,6.4,2.3c.5-.6.4-2.3.4-3.4v-2.5l1.3.3c.7.2,1.2.5,1.7.9.3.2.7.5.8.5h0l-4.8-7.3.4-.6c1-1.4,2.5-1.5,3.6-1.7.8,0,1.4-.2,1.9-.5.5-.4.6-.9.6-1.6s0-.9.2-1.3c1.7-3.5,7.2-3.7,12.5-3.9,2.7,0,5.3-.2,6.8-.7l2.5-.9-1.3,2.4c-.3.6-.6,1.2-.9,1.8-.8,1.7-1.7,3.4-3.6,5.1l2,5.8-.4.4c-.7.8-1.4,1.5-2.2,2.1-.8.8-1.7,1.5-2.3,2.3-2.8,3.6-8,10.5-8.5,11.5-.2.8,0,1.9.3,3,.3,1.4.6,2.8.3,4.2v.3l-.3.2c-.7.7-1.8.4-2.8,0-.4,0-1.2-.3-1.4-.3,0,.2,0,.8.4,2.4l.7,2.1-2.5-1c-.9-.4-1.1-.5-1.3,0l1.1,4.7-1.6-.4c-1-.2-1.7-.2-2.1,0-.5.3-.6,1.1-.8,1.9-.2.9-.4,1.9-1.2,2.5l-.2.2-3.4.3c-.2.6,0,1.7,0,2.6,0,1.8,0,3.9-.9,5.4-.4.6-1.2,1.1-2.3,1.8-2.6,1.5-4.5,2.9-4.3,5.4h2.6v1c0,.8,0,1.7.2,2.5,0,2.2.3,4.5,0,7l3.2-1.9.5.9c1.3,2.4-2.5,6.8-4.4,8.2-1.6,1.1-2.5.8-2.9.3l-.2-.3-.8-10.1c0,1.2-.2,2.5-.3,3.6-.3,4.6-.5,8.6-3.2,8.6h-.6v.3h0ZM798.2,735.4c-.8,1.8-3.9,12.3-4,13.4,0,1.3.5,1.5,1.2,1.7,1,.3,1.4.9,1.2,1.6v.2l-.2.2c-6.5,7.1-7.2,15.6-2.4,25.9.5-1.3.7-4.8.8-6.3.2-4,.5-7.8,2.2-9.3l.2-.2v-.4c-1.2-4.7,2.6-7,5-8.4.7-.4,1.5-.9,1.6-1.1.7-1,.6-2.7.5-4.2,0-1.6,0-3.1.6-4.2l.3-.4,3.8-.3c0-.3.2-.8.3-1.1.2-1.1.5-2.4,1.7-3.2.6-.4,1.3-.5,2.1-.5l-.6-2.6.2-.3c.8-1.4,1.8-1.7,2.7-1.5-.2-1.2,0-2,.5-2.6.9-.9,2.3-.5,3.5-.2.2,0,.5,0,.7.2,0-.8-.2-1.7-.4-2.6-.3-1.3-.6-2.7-.2-4,.3-.9,6.8-9.5,8.8-12.1.7-1,1.7-1.8,2.5-2.6.6-.5,1.1-1,1.6-1.5l-2-6,.6-.4c1.9-1.5,2.7-3.1,3.6-4.9-1.5.2-3.4.3-5.3.3-4.5,0-9.6.3-10.7,2.7v.5c0,.8,0,2.2-1.4,3.2-.9.7-2,.8-2.9.9-.8,0-1.3.2-1.8.4l4.8,7.2-.3.5c-.5.8-1.1,1.2-1.7,1.4-.8.2-1.5-.2-2.1-.6,0,1.9,0,4.1-1.9,4.9h-.4l-2.8-.9c.5,2.6-1.3,3.7-2.6,4.5-.8.5-1.5.9-1.8,1.6-.3.8-.3,1.6-.3,2.5s0,1.7-.2,2.5c-.4,1.1-1.3,1.6-2.1,2-.3.2-.8.4-.9.5,0,0,.3.7.4,1,.3.8.7,1.7,0,2.3-.4.4-.9.3-1.4.3h-1,0ZM799.6,775.3l.2,2c1-.7,2.6-2.3,3.5-4.1v-.2l-3.7,2.2h0ZM798.6,763.2l.9,10.5v-.3c.6-3.1.4-5.8.2-8.6v-1.6h-1.1Z"/>
  </g>
  <g id="_x3C_Virginia_x3E_">
    <path class="st4" d="M794.8,811.8c-1.5-4.5-1.2-1-3.6-.8-2.8,0-4.7-3.4-3.3-5.7,1.3-2.1,5.9,0,4.5-4.9-3.3-4-6.6-2-11-2.5-5.4-.6-8.1-3.2-12.6-5.7-1.4-5.5,1.6-5.4,1.6-10.6l-2.5.5c-.9-7.7-9.2-2.9-7.3-11.1-2,0-3.7.2-5.7-.4-4.8-1.6-20.9-20.8-23-25.8-.6-1.4-1.6-5.1,1-5.1,4.6,8.8,12.5,20.7,20.8,26.5,3.9,2.8,8.2,2,7.7-3.2h-4.9v-2.4l3.3-.4-4.9-5.7,5.7,1.2-1.2-3.2,4.1,3.2,2.8-1.6c0,1.7-.7,5.8,2,5.7,3.4,0,2.3-5.3,3.6-7.6-1.6-3.8-4.2-2.1-2.3-7.1-4.4-.6-7-2.3-11.6-.9l-7.1-4.8,8.7,3,7.6-2.6c-1.9-1.7-4.5-1.5-6.7-2.8-4.6-2.8-2.5-1.6-8-2.8-6.4-1.5-3.7-5.7-6.1-9.4-1.7-2.7-7.4-5.4-9.8-8.1-2-2.4-2.6-5.4-4.5-7.8-2.3-2.8-7.3-6.1-9.4-9.4-.9-1.4-.8-6.2-1.2-8.1,2.4,1,1.7,4.6,3.2,6.2,1,1.1,2.7.8,3.4,1.7s.9,3.5,2,5.1c.7,1.1,6.1,6.8,7.3,8.1,4.9,5.1,15.8,7.1,14.2,18h2.4c.5-.5-1-4.9,1.2-4.1,2.1.8,8.6,8.9,10.2,7.3.3-2-.5-5,0-6.8.2-.9,2.1-.5,2.5-2.6.5-2.6-1-6-.5-7.8.9-3.5,7.3-.8,5-8.2-1.3-4.2-11-6.9-14.7-9.7-6.2-4.8-9.9-15.5-18.3-15.5-.2.2,0,5.9-2,4.9-2.9-7.4-6.9-5-12.5-7.1-5.7-2.1-3.4-5.6-5.8-8.6-1-1.3-3.4-1-4-2.7-1.1-3.4,2-7-.6-9.2-4.1,1.3-15.1,8.5-18.7,4.9-1.5-1.5-3.1-9.5-2.9-11.8,0-.8,5-13.7,5.6-14.8s1.1-2.2,2.6-1.9v3.3c5.8.4,4-3.8,5.6-6.2s6.6-3.7,6.6-4.8v-12.6h1.6c-.9,1.6.8,4.3.8,4.9,1.9-.2,3.4-1.9,4.4-3.3,1.1-1.5,6.4-10.9,7-12.5,1.1-2.8.5-5.2-1.6-7.4-5.8-5.9-13.7,8.4-19.6,8.6-2.6-9.8-16.7-6.9-23.6-11.9-9.4-6.7.8-9.3,0-12.8-3.8-5.6-14.2-14.1-20.3-7.1-2,2.3-4.4,10.4-5.6,13.5-.3.8.5,1.4-1.2,1.1l-34.6-28.5-3.2-.8c.2,2.4-.7,4.6-.9,6.9-.3,4.1,2.1,2.5-1.6,6.9-1.1,1.3-2.5,1.5-3.1,3.8-.9,3.7.6,6.5.6,9.5,0,5-6,5.7-8.8,9.2-2.1,2.7-1.5,6.3-3.4,8-1.1,1-3.1,1-4.5,2s-3.4,4-4.5,4.5c-2.2.9-3.3-1.3-6.5,3.2-1.8,2.5-3.9,12.8-7.2,10.9-1.3-.7-5.8-10.6-8.9-5.8-2.9,4.7-4.8,4.3-6.5,10.6-1.8,6.4-1.2,3.9-4.1,8.9-3.4,5.9-4.5,18.3-13,19.7-2.1.3-9.2-2.1-10.7-3.6-3.3-3.1-2.2-11.2-9.3-10.1-1.9.3-7.4,5.7-7.7,7.1-.3,1.2.7,2.6.6,3.8-.5,6.4-7.1,8.6-7.9,11.6-.5,1.8.3,4.6-.3,5.8-.6,1-7.3,4.9-8.8,7.1-3.1,4.3-2.5,10.5-4.3,15.3-1,2.5-6.7,8.1-8.7,10.4-4.2,4.7-8.9,9.1-13,13.8-1.6,2.9-3.7,6-1.5,9.3,1.1,1.7,4,1.5,3.1,4.8-.7,2.3-6.5,3.2-6.3,5.9.2,2.2,4.9,1.2,3.9,3.6-3.4,0-10.8,7-12.8,7.2s-2.3-4.2-7.8-2.9c-4.1,1-11.1,8-14.3,8.6-2.5.5-4.6-2.7-5.9-4.4-6.5-.8-1.5,5.8-2,7-2.9,6.6-12.1,4-16.9,5.1-2.3.5-6.4,3.7-8.4,3.9-4.5.5-8.9-7.5-12.1-7.3-6.4,2.2-15.9,13.8-22.7,12-3.5-.9-4.9-5.1-6.8-6.2-1.8-1.1-4-.5-5.7-1.7-1.3-.9-2-3.7-3-4.7-.9-.8-2.8-.8-3.4-1.8-.8-1.2,1.2-9.3-4.5-10.2l4.1-5.3h-4.1c-8,6-14.7,14.2-22.9,19.9-6.5,4.4-28.6,12.4-30.5,18.3-.8,2.5.2,6.5-2.3,8.2-2.3,1.6-5.9,0-7.9,2.1-1.9,3,.9,7.7-3.6,10.9-4.1,2.9-9.3,1.5-12.9,3.3-4.1,2.1-4,8.4-5.4,9.3-1.2.8-3.6,0-5.2.5-2.2.6-6.5,4.1-11,5.3-7.9,2.2-17.1.8-22.2,8.4l124.2-.8c5.8-.2,14.1-2.1,19.5-1.7,3.4.3,5.2,2.8,9.7,3.3,27.4,2.8,58.5-1,86.2,2.5l324.5.8c-.2-.8-.4-1.7-.8-2.4h2c.4,0,1,1.9,1.2,2.4,1.5,0,4,.6,4.9-.8-.9-.7-2.6-1-3.3-2-2.4-3.4,1-9.8,1.7-13.5l2.4,2.4v-1.6c-.7-2-1.6-3.3-1.6-5.7h.4-.1Z"/>
    <path class="st2" d="M793.3,834.2h-3.3l-.2-.7c-.2-.5-.5-1.3-.7-1.7h0c0,.2,0,.5.2.7l.5,1.8h-1.3l-324.5-.8h0c-14.5-1.8-30.2-1.7-45.3-1.5-13.7.2-27.8.3-40.9-1-2.6-.3-4.3-1.2-5.9-2-1.3-.7-2.4-1.2-3.8-1.4-3.1-.2-7.2.3-11.2.9-3,.4-5.8.8-8.2.9l-126.1.8,1.1-1.6c3.9-5.8,10.1-6.7,16-7.5,2.2-.3,4.6-.7,6.7-1.2,2.5-.7,5.1-2.2,7.1-3.4,1.5-.9,2.8-1.6,3.8-1.9.9-.2,1.8-.2,2.7-.2s1.8,0,2.2-.2c.2-.2.5-1.3.8-2.1.7-2.4,1.7-5.7,4.7-7.3,1.7-.9,3.8-1.1,5.8-1.3,2.4-.2,4.9-.5,7.1-2,2.3-1.6,2.3-3.7,2.4-6,0-1.6,0-3.2.9-4.6h.1c1.4-1.6,3.2-1.7,4.9-1.8,1.2,0,2.3,0,3.1-.6,1.3-.9,1.4-2.7,1.5-4.6,0-1.1.1-2.2.4-3.1,1.4-4.4,11-9,20.4-13.4,4.3-2.1,8.4-4,10.5-5.5,4.3-3,8.3-6.7,12.1-10.4,3.4-3.3,6.9-6.6,10.7-9.4l.3-.2h6.4l-4.3,5.7c3.5,1.6,3.6,6.1,3.6,8.6v1.7c.1.2.8.4,1.3.6.7.2,1.4.5,2,1,.6.6,1.1,1.5,1.5,2.4s.9,1.9,1.4,2.2c.6.5,1.5.6,2.4.7,1,0,2.2.3,3.2.9.9.5,1.6,1.5,2.3,2.5,1.1,1.5,2.3,3.1,4.2,3.6,3.7,1,8.8-3,13.3-6.4,3.1-2.4,6.1-4.7,8.8-5.6h.3c1.9,0,3.6,1.5,5.7,3.4,2,1.9,4.3,4.1,6.3,3.9.8,0,2.3-1,3.7-1.8,1.6-.9,3.3-1.8,4.5-2.1,1.5-.3,3.2-.3,5.1-.3,4.5,0,9.2,0,11.1-4.1,0-.3-.3-.9-.5-1.4-.7-1.7-1.5-3.8-.4-5.3.7-.9,2-1.3,4-1h.4l.6.9c1.1,1.6,2.9,3.9,4.6,3.6,1.3-.3,3.7-2,6-3.7,2.9-2.1,5.9-4.4,8.3-4.9,4-.9,5.7.9,6.9,2.1.5.5.8.8,1.1.8.5,0,2.5-1.5,3.9-2.5,2.5-1.8,5.3-3.9,7.6-4.5-.2,0-.5-.2-.7-.2-1.1-.3-2.7-.8-2.9-2.5-.2-2.1,1.9-3.2,3.7-4.2,1.1-.6,2.4-1.3,2.6-2,.4-1.5,0-1.7-1.1-2.4-.6-.4-1.4-.8-1.9-1.6-2.3-3.5-.4-6.9,1.1-9.6l.5-.9c2.2-2.6,4.6-5,7-7.4,2-2.1,4.1-4.2,6.1-6.4.5-.5,1.2-1.3,1.9-2.1,2.4-2.5,5.9-6.3,6.6-8,.7-1.8,1-3.8,1.4-6,.5-3.3,1.1-6.7,3.1-9.5,1-1.4,3.5-3.2,5.8-4.8,1.2-.9,2.7-1.9,3-2.3.2-.3.1-1.4,0-2.2,0-1.1-.1-2.3.2-3.3.4-1.4,1.7-2.5,3.1-3.8,2.1-1.9,4.5-4,4.8-7.6,0-.4-.1-.9-.3-1.5-.2-.8-.5-1.6-.3-2.5.4-1.8,6.2-7.5,8.5-7.8,5.4-.8,6.9,3.1,8,6.3.6,1.6,1.2,3.2,2.2,4.1,1.4,1.3,8.3,3.6,9.9,3.3,5.5-.9,7.7-7.2,9.6-12.8.8-2.4,1.6-4.7,2.6-6.4.9-1.6,1.5-2.4,1.9-3.1.8-1.2.9-1.4,2.1-5.6,1.2-4.3,2.5-5.7,4-7.4.8-.9,1.7-1.9,2.7-3.5.7-1.2,1.7-1.8,2.7-1.8h0c2.4,0,4.5,3.1,6.2,5.6.5.7,1.1,1.5,1.3,1.7h.4c1.2-.4,2.6-4.1,3.6-6.5.7-1.8,1.3-3.3,1.9-4.2,2.3-3.3,3.8-3.5,5.5-3.4.5,0,1,0,1.4-.2s1.4-1.3,2.1-2.1c.7-.9,1.5-1.8,2.2-2.3.8-.6,1.7-.9,2.6-1.2.7-.2,1.4-.5,1.9-.8.7-.6,1-1.8,1.3-3.1.4-1.5.8-3.2,1.9-4.7,1.1-1.4,2.7-2.4,4.2-3.3,2.3-1.4,4.3-2.6,4.3-5.2s-.2-2.1-.4-3.3c-.3-1.9-.7-4,0-6.5.4-1.9,1.4-2.6,2.3-3.3.4-.3.7-.6,1-.9,2-2.4,1.9-2.6,1.7-3.2-.2-.6-.5-1.5-.4-3.2,0-1,.3-2,.5-2.9.3-1.3.5-2.6.4-3.9v-1.4l4.7,1.2h.2l34.2,28.3v-.3c.3-.8.7-1.9,1.1-3.1,1.4-3.9,3.1-8.9,4.7-10.7,1.9-2.1,4.2-3.2,6.9-3,6.1.4,12.4,6.4,14.9,10.2h0v.3c.5,1.7-.8,3.1-1.9,4.4-1.1,1.2-2,2.3-1.9,3.6,0,1.2,1.3,2.7,3.6,4.3,2.5,1.8,6.1,2.5,9.6,3.2,5.9,1.2,12,2.4,14.1,8.4,1.9-.5,4.2-2.5,6.4-4.5,4-3.5,9-7.9,13.2-3.7s3.1,5.4,1.9,8.5c-.7,1.7-6.1,11.3-7.2,12.7-1.2,1.6-2.8,3.5-5.1,3.7h-1.1v-1s0-.3-.2-.5c0-.2,0-.4-.2-.6v8.8c0,1.1-1.4,2-4,3.6-1,.6-2.5,1.5-2.7,1.8-.4.6-.6,1.4-.7,2.2-.4,2-.9,4.8-5.8,4.4h-.9v-3.1c-.2.2-.4.6-.7,1.2-.6,1.2-5.3,13.6-5.5,14.5-.2,2.3,1.4,9.8,2.6,11,2.2,2.2,8.8-1.1,13.3-3.2,1.8-.9,3.3-1.6,4.4-2l.5-.2.4.4c1.8,1.6,1.4,3.8,1,5.7-.3,1.3-.6,2.7,0,4,.2.5.7.7,1.5,1s1.7.6,2.3,1.4c1,1.3,1.3,2.7,1.6,3.9.4,1.9.7,3.3,3.8,4.5,1.6.6,3,.8,4.4,1,3.1.4,6.1.9,8.3,5.7,0-.5.3-1.3.4-2.8,0-.9,0-1.2.4-1.5l.3-.3h.4c5.9,0,9.6,4.7,13.1,9.3,1.8,2.3,3.7,4.8,5.8,6.4,1.2.9,3.2,1.9,5.3,2.9,4.3,2.1,8.8,4.2,9.8,7.3,1.5,5-.5,6.2-2.9,7.1-1.2.4-1.8.7-2.1,1.6-.2.6,0,1.8.2,2.9.3,1.5.6,3.2.3,4.8-.3,1.7-1.5,2.3-2.2,2.6,0,0-.2,0-.3.2-.2.8,0,1.9,0,3s.2,2.4,0,3.5v.3l-.3.2c-1.7,1.7-4.5-1-7.8-4.1-1.3-1.2-2.7-2.6-3.4-2.9v1.6c0,1.1.2,1.8-.3,2.2l-.3.3h-4l.2-1.1c1-7.1-3.5-10-8.4-13-2.1-1.3-4-2.5-5.5-4.1-.3-.3-1.2-1.3-2.3-2.4.2.5.5.9.7,1.4.6,1.4,1.3,2.7,2.2,3.8,1,1.2,2.8,2.4,4.5,3.7,2.2,1.5,4.3,3,5.3,4.6,1,1.5,1.2,3,1.4,4.4.4,2.3.6,3.8,4.1,4.6,1.7.4,2.6.5,3.2.6,1.7.3,1.8.3,5,2.3.8.5,1.8.8,2.8,1.1,1.4.4,2.8.8,4.1,1.9l1.3,1.1-7,2.4c1.5,0,2.8.4,4.1.7,1.1.3,2.2.5,3.5.7l1.2.2-.4,1.2c-.9,2.5-.7,2.7,0,3.4s1.5,1.3,2.2,2.9l.2.4-.2.4c-.3.6-.5,1.7-.6,2.7-.3,2.2-.7,5.3-3.8,5.4-.8,0-1.6-.3-2.1-.8-1-1-1.1-2.7-1-4.1l-1.8,1.1-1.8-1.4.6,1.6-4.6-1,4.1,4.9-4.2.5v.6h4.8v.9c.4,3.4-1.2,4.8-2.1,5.3-1.9,1.1-4.6.6-7.1-1.2-9.7-6.9-17.9-21-20.7-26.1h0c-.3.5,0,2.1.5,3.5,2,4.7,17.9,23.7,22.4,25.3,1.6.5,3,.5,4.6.4h2l-.3,1.2c-.8,3.4.2,3.8,2.3,4.6,1.7.7,4.1,1.6,4.9,5l2.7-.5v1.2c0,2.5-.7,3.8-1.2,5.1-.6,1.4-1.1,2.4-.5,4.9,1,.6,1.9,1.1,2.8,1.7,2.9,1.8,5.2,3.3,9.1,3.7h3.5c2.7-.2,5.5-.4,8.1,2.8v.2l.2.2c.4,1.5.4,2.5,0,3.4-.6,1.1-1.8,1.3-2.8,1.5-.8.2-1.5.3-1.7.8-.5.8-.4,1.8,0,2.8.5.9,1.4,1.4,2.3,1.4s.8-.3,1.2-.7.8-.9,1.5-.7c.9.2,1.3,1.1,1.9,2.9v.5c0,1.5.4,2.5.9,3.7.2.5.4,1,.6,1.6v4.6l-2.9-3c-.2.6-.4,1.2-.6,1.8-1,3.2-2.3,7.1-.8,9.1.3.4,1,.7,1.6,1,.5.2,1,.4,1.4.8l.8.6-.5.8c-.7,1.1-2,1.4-3.2,1.4l-.5-.7h0ZM791.5,832.1h1.7c-.6-.3-1.2-.7-1.6-1.3-2-2.9-.6-7.3.6-10.9.4-1.3.8-2.4,1-3.4l.4-1.9,1.4,1.4c-.5-1.2-1-2.5-1-4.2h0c0-.4-.3-.7-.4-1-.5.4-1.2.9-2.2,1-1.6,0-3.2-.8-4.1-2.3-.9-1.6-1-3.4,0-4.8.7-1.2,2-1.4,3-1.7.7,0,1.3-.3,1.5-.6,0-.2.2-.6,0-1.6-1.9-2.2-3.8-2.1-6.3-1.9-1.2,0-2.5.2-3.9,0-4.3-.5-6.9-2.1-9.9-4-1-.6-2-1.2-3.1-1.8l-.4-.2v-.4c-1-3.4-.3-5.1.5-6.6.4-.8.8-1.7.9-3l-2.3.4v-1.1c-.5-3.1-2.1-3.7-3.9-4.5-1.9-.8-4.2-1.7-3.7-5.7-1.6,0-3.1,0-4.8-.5-5.1-1.7-21.4-21.2-23.6-26.4-.4-.8-1.4-3.7-.3-5.4.3-.5,1-1.1,2.2-1.1h.6l.3.5c4.8,9,12.6,20.6,20.4,26.1,1.9,1.3,3.8,1.7,5,1.1.9-.5,1.2-1.5,1.2-2.5h-4.9v-4.3l2.3-.3-5.6-6.5,6.8,1.5-1.9-4.9,6.4,5.1,3.7-2.1v2.7c0,1.1-.2,2.9.4,3.5,0,0,.3.2.6.2,1.1,0,1.5-1,1.8-3.6,0-1,.3-2.1.6-2.9-.5-.9-1-1.4-1.5-1.8-1.3-1.1-1.8-2.1-1.1-4.5-.9-.2-1.7-.4-2.5-.6-2.5-.6-4.5-1.1-7.5-.2h-.5l-14-9.3,15.8,5.5,5.2-1.8c-.5-.2-1-.3-1.5-.5-1.1-.3-2.2-.6-3.3-1.3-2-1.2-3.4-1.9-4.3-2-.7,0-1.7-.3-3.4-.6-4.8-1.1-5.2-3.8-5.6-6.2-.2-1.3-.4-2.4-1.1-3.6-.8-1.3-2.8-2.7-4.8-4-1.8-1.3-3.7-2.6-4.9-4-1.1-1.3-1.8-2.8-2.5-4.3-.6-1.3-1.1-2.5-2-3.5-.9-1.2-2.4-2.4-3.9-3.7-2.1-1.8-4.3-3.7-5.5-5.7-.6-1-.8-2.8-1-5.5,0-1.2-.2-2.3-.3-3l-.4-1.9,1.8.7c1.9.8,2.3,2.7,2.7,4.2.2.9.4,1.8.9,2.2.3.4.9.5,1.4.7.7.2,1.5.4,2,1.1.4.5.7,1.4.9,2.3.3,1,.6,2.1,1.1,2.9.6.9,5.6,6.3,7.2,8,1.3,1.4,3.2,2.6,5.1,3.8,4.7,3,10,6.3,9.4,13.9h.4v-.3c0-1.3-.3-2.8.7-3.5.3-.3,1-.5,1.9,0,1,.4,2.2,1.5,4.2,3.4,1.3,1.3,3.6,3.5,4.8,4v-2.3c0-1.3-.2-2.7,0-3.8.2-.8.9-1.1,1.4-1.4.6-.3.9-.4,1.1-1.2.2-1.2,0-2.7-.3-4.1-.2-1.4-.5-2.7-.2-3.8.5-1.9,2-2.4,3.3-2.9,1.8-.7,2.8-1.1,1.7-4.7-.7-2.3-5.1-4.4-8.7-6.1-2.2-1.1-4.3-2.1-5.7-3.1-2.3-1.8-4.3-4.3-6.2-6.8-3.2-4.1-6.2-8-10.6-8.5,0,2.1-.4,4-1.6,4.7-.3.2-.9.4-1.8,0l-.3-.2v-.4c-1.9-4.6-4.1-4.9-7.2-5.4-1.4-.2-3-.4-4.8-1.1-4.1-1.5-4.6-3.9-5-5.9-.2-1.1-.4-2.1-1.2-3-.3-.4-.8-.6-1.4-.8-1-.4-2.2-.8-2.7-2.3-.6-1.8-.2-3.5,0-5,.3-1.6.5-2.6,0-3.4-1,.4-2.2,1-3.6,1.6-5.5,2.7-12.4,6-15.6,2.8-1.8-1.8-3.4-10.1-3.2-12.6,0-1.2,5.3-14.5,5.7-15.2.6-1.1,1.4-2.8,3.7-2.4l.8.2v3.1c2.2,0,2.4-1.1,2.8-2.8.2-1,.4-2,1-3,.5-.7,1.6-1.4,3.4-2.4,1-.6,2.6-1.6,3-2v-13.4h4.3l-.8,1.5c-.4.8.2,2.3.6,3.2h0c1.2-.5,2.2-1.7,3-2.7,1.1-1.5,6.3-10.8,6.9-12.3.9-2.4.5-4.4-1.4-6.4-2.6-2.7-5.8-.2-10.4,3.8-2.9,2.6-5.7,5-8.4,5.1h-.8l-.2-.7c-1.4-5.5-7-6.6-12.8-7.8-3.7-.7-7.6-1.5-10.4-3.5-2.8-2-4.2-3.8-4.4-5.7-.2-2.2,1.2-3.8,2.4-5.1.8-.9,1.6-1.7,1.5-2.4-2.5-3.7-8.2-8.8-13.3-9.1-2.1,0-3.9.6-5.3,2.3-1.3,1.6-3.1,6.7-4.3,10-.4,1.3-.8,2.4-1.1,3.2v.3c0,.3,0,.8-.5,1.2s-1.2.3-1.9.2h-.2l-.2-.2-34.5-28.3-1.8-.4c0,1.1-.3,2.1-.5,3.1-.2.9-.4,1.8-.4,2.6,0,1.3,0,1.9.3,2.4.5,1.5.3,2.2-2.1,5.1-.4.5-.9.9-1.3,1.2-.7.6-1.3,1-1.6,2.2-.5,2.1-.2,3.8.2,5.6.2,1.2.4,2.4.4,3.7,0,3.7-2.8,5.4-5.3,6.9-1.4.9-2.8,1.7-3.7,2.9s-1.3,2.6-1.6,4c-.4,1.5-.7,3.1-2,4.2-.7.6-1.7.9-2.6,1.2-.7.2-1.4.5-2,.9-.5.4-1.2,1.2-1.9,2-1.1,1.2-2,2.3-2.8,2.6-.9.4-1.7.4-2.3.3-1.1,0-1.9,0-3.8,2.6-.5.7-1,2.1-1.6,3.7-1.3,3.4-2.7,6.9-4.8,7.7-.7.3-1.4.2-2.1-.2-.5-.3-1-1-1.9-2.3-1.1-1.6-3.2-4.7-4.6-4.7s-.7.3-1.1.9c-1.1,1.7-2,2.8-2.9,3.7-1.4,1.6-2.5,2.8-3.5,6.6-1.2,4.4-1.4,4.7-2.4,6.2-.4.6-.9,1.4-1.8,2.9-.9,1.6-1.7,3.8-2.5,6.1-2.1,6.1-4.5,13-11.2,14.1-2.4.4-9.8-2.2-11.6-3.8-1.4-1.2-2-3.1-2.7-4.9-1.2-3.4-2.2-5.5-5.8-5-1.4.2-6.5,5.1-6.9,6.3,0,.4,0,.9.3,1.5.2.7.5,1.4.4,2.2-.3,4.4-3.2,6.9-5.4,8.9-1.2,1.1-2.3,2-2.5,2.9-.2.7-.1,1.7,0,2.7,0,1.3.1,2.5-.3,3.3s-1.2,1.2-3.5,2.9c-1.9,1.4-4.5,3.2-5.3,4.3-1.7,2.4-2.2,5.4-2.7,8.6-.3,2.2-.7,4.4-1.5,6.4-.8,1.9-3.6,5.1-7,8.7-.8.8-1.4,1.5-1.9,2-2,2.2-4.1,4.4-6.1,6.5-2.3,2.3-4.6,4.8-6.8,7.3l-.4.7c-1.4,2.6-2.8,5-1.2,7.5.3.4.7.7,1.2,1,1.1.7,2.8,1.7,2,4.6-.4,1.4-2,2.3-3.5,3.2-1.3.7-2.8,1.6-2.7,2.3,0,.3.6.5,1.5.8s2,.6,2.4,1.5c.3.5.3,1.1,0,1.8l-.3.7h-.7c-1.7,0-5.1,2.5-7.6,4.3-2.5,1.9-3.9,2.8-4.9,2.9-1.2,0-2-.7-2.7-1.4-1-1.1-2.1-2.2-4.9-1.5-2,.5-4.9,2.6-7.5,4.6-2.7,2-5.1,3.7-6.8,4.1-2.9.6-5.2-2.5-6.6-4.4h0c-1.3-.2-1.6,0-1.7.2-.4.5.3,2.4.7,3.3.5,1.2.8,2.1.5,2.8-2.4,5.3-8.2,5.3-13,5.4-1.8,0-3.4,0-4.7.3-1,.2-2.5,1.1-4,1.9-1.7,1-3.3,1.9-4.5,2-2.9.3-5.6-2.2-7.9-4.4-1.4-1.4-3.1-2.9-4.1-3-2.3.8-5.1,3-8,5.2-5.1,3.9-10.4,8-15.1,6.8-2.5-.7-4-2.7-5.3-4.4-.6-.9-1.2-1.7-1.8-2-.7-.4-1.5-.5-2.4-.6-1.1,0-2.3-.3-3.3-1-.9-.6-1.5-1.8-2-3-.4-.7-.7-1.5-1.1-1.8-.2-.2-.8-.4-1.3-.6-.9-.3-1.8-.6-2.4-1.5-.3-.6-.4-1.4-.4-2.7,0-3.4-.3-6.6-3.4-7.1l-1.6-.3,3.8-5h-1.7c-3.6,2.7-7,5.9-10.2,9.1-3.9,3.7-7.9,7.6-12.4,10.6-2.3,1.6-6.2,3.4-10.8,5.6-7.7,3.7-18.2,8.7-19.3,12.2-.2.7-.3,1.6-.3,2.6-.1,2.2-.3,4.7-2.4,6.1-1.3.9-2.8.9-4.2,1-1.4,0-2.6,0-3.4.9-.5.9-.6,2.1-.6,3.5,0,2.4,0,5.3-3.2,7.6-2.5,1.8-5.4,2.1-8,2.3-1.9.2-3.6.4-5.1,1.1-2.2,1.1-3,3.9-3.7,6-.5,1.6-.8,2.7-1.6,3.2-1,.6-2.2.6-3.4.5h-2.1c-.8.2-2,.9-3.4,1.7-2.1,1.2-4.8,2.8-7.6,3.6-2.3.6-4.7,1-7,1.3-5.1.7-10,1.4-13.4,5.1l122.1-.8c2.3,0,5.1-.4,8-.8,4.1-.6,8.3-1.1,11.6-.9,1.8,0,3.2.9,4.6,1.6,1.5.7,3,1.5,5.2,1.7,13,1.3,27,1.2,40.7,1,15.2-.2,30.9-.4,45.6,1.5l323.1.8c0-.3-.2-.7-.4-1l-.8-1.4h3.9c.2,0,.9.3,1.7,2.4h-.2ZM757.9,742.9h.2-.3,0ZM723.1,696.6c0,1,.3,1.9.5,2.3,1.1,1.8,3.2,3.6,5.2,5.3,0,0,.2.2.3.2-.5-.9-.8-2-1.1-3-.2-.7-.4-1.4-.6-1.7,0,0-.6-.3-.9-.4-.7-.2-1.7-.5-2.4-1.3-.4-.5-.7-1-.9-1.6v.2h0Z"/>
  </g>
  <g id="_x3C_maryland_x3E_">
    <path class="st4" d="M860,656.3l-44.8-1.6h-.8l-4.1-57.8c-1.2-16.8-3.4-34.6-4.1-51.7,0-3-.5-7.5,0-10.2h-272.7c.9,14.7-1.1,30.7,0,45.2.2,2.5-.4,2.1,2.4,2,5-2.5,21.8-16.1,24.5-20.7,1.5-2.5,0-5.7,5-4.3,2.9.8,3.3,4.1,7.9,1l12-14.1c4.1-1.4,5.3,6.8,9,7.9,1.4.4,11.5,1.2,12.9,1,4-.8,1.1-5.3,1.3-5.6s5.3-3.6,5.7-3.7c1.6-.6,3.5-.2,4.9-.8,5.4-2.3,9.8-6.3,16.5-4.3,1.6.5,4.5,4.4,7,5.2,3,.9,8.2-.6,9.9,1.5,1.5,1.9,0,6,2.6,8.4,1.1,1,2.8.6,3.7,2.5,2.8,5.9,2.1,12.8,3.4,19,6.1-7,16.5,1.5,20.3,7.1.9,3.5-9.3,6.1,0,12.8,6.9,4.9,21,2,23.6,11.9,5.9-.2,13.8-14.5,19.6-8.6,2.1,2.2,2.8,4.6,1.6,7.4-.6,1.6-6,11-7,12.5-1,1.4-2.5,3.1-4.4,3.3,0,.8-1,8.5-1.2,9-1,2.1-4.2,1.9-5.1,2.6-1.2,1.1-.6,4.7-1.8,6.8-1.8,3.2-8.1,4.4-9.9,8.8-4.2,10.8,4.8,21.5,10.7,7.8l2.8,1.6c1.7-.3,1.7-4,3.3-3.2,1.8.8,3.2,8.3,4.8,10.7,1,1.6,6.8,7.6,8.3,7.2,1.9-.5-.4-8.1-1.1-9.2-.9-1.5-4.6-.6-2.9-3l5.7,3.3c.5,6,6.3,21.7,7.8,6.5,3.3.5,2,4.4,6.5,2.4l-2.4,3.2c4.1,1.8,11.1,2.1,9.8,8.2,3.3.6,5.3-.5,8.1-1.6-1,3.2,3.2,9.3,6.1,9.8,1.7.2,1.1,0,1.2-1.2,1.3-8.7-5.1-12.5-5.3-20.8-5.2.2-5.2-1.7-7.8-4.8-4.3-5.3-4-4.1-8.9-7.8-5.3-4-4.5-8.9-3.7-15,2.5,3,1.1,7.7,2.9,10.9,1.5,2.6,7.4,4.7,9.7,7.4,1.6,1.8,2.2,4.4,4,6.2,3.1.7,5.2-1.2,4.9-4.4-.3-3-5.8-7.3-7.5-10.5-3.9-7.3-1.3-16-4.8-23.8l4.1-8.9-4.1-.4,3.1-5.4-3.1-5.2,5.7,1.6c.6-3.3-2-5.4-3.2-8.1,3.6,1.6,4.6,3.7,9,1.6,1.2-4.9-8.9-4.7-9-7.7,0-1,5.6-.6,6.4-3.4.5-1.7-.2-3.7.3-5.4.3-1,1.7-1.6,2.1-2.8.7-2.1,1.3-7.2-.6-8.8,3.8-1.8,5.4-3.1,4.9-7.7l-3.3-.4c1.1-1.5,4.5-1.7,5.8-.9,2,1.4-.7,7.7,2,7l2.8-2c-5.2-3.5-.2-7.1-.8-11.8h2.4l-1.6,9c1.4,1.4,6.5-3,7.8-4,2-1.8,1.5-4.2,5.2-3.3v-2.4c-2.3.5-3.1-.7-3.2-3-.3-6.5,6.5-4.8,10.5-6.8.4,3.2-.4,6-2.4,8.5l1.2.4,11-9.8c-.3,2.4-5.4,7.6-4.5,9,1,1.5,4.4.7,3.7,3.2-4.7-1.2-8.7-2.1-11.8,2.5-.9,1.4-2.6,3.7,0,4,3.7.5,9.2,1.2,12.6,0v2.4c-.7.7-16.6,0-18.5-1.4-6.7.9-5.4,4.9-7.2,8.7-1.1,2.3-4.7,5.3-5.7,9-1,3.5,2.3,6.8,2.1,10.6,1.2,1.3,4.9-4.9,5.3-5.7l3.7,1.7c-.2,3.7-2.5,2.8-3.3,3.7-3.2,3.5.7,5.6,0,7.9-.7,2.2-7.7,1.9-4,8.7,3-.6,7.5-1.8,8.1,2.5l-7.3,2.5,2,4c-.9,1.1,2.3,4.6,0,5-1.7.2-5.5-8-9.3-6.5l-3.3,10.1c.5,3.5,2.8-3.5,2.5-3.7l2,3.2,3.2-3.9c1.6.3,3.9,2.5,2.9,3.9-.4.5-2.9-2.2-2.4.4l2.8,2.8c1-.2,5.3-5.8,6.1-4.8,1.6,1.9-5.7,5.2-4.1,7.3l3.2-.8-1.3,2.4c6.3,7.3,12.6,6.2,12.7-4.1,3.7,1.8-.8,11.8-3.8,12-7.3.6-17.4-12.6-19.8,1,3.4.9,4,.7,6.5-1.6l1.6,4.1c-3.5.4-7,.5-7.3,4.9l-3.2-2.4c-1.8,3.6,1.2,5.3,2.8,8.2.9,1.8.6,4.8,2.9,5.6l1.2-4.1c2,1.7,3.3,7.3,4.4,8.6,1.2,1.4,3.4.8,4.6,1.9,1.7,1.6.4,6.1,5.3,4.9-2.2-6.4,2.3-8.8,2.5-14.7,1.7-.2,1.3,0,1.8,1,2.9,6.6-1.4,5.1-1.6,6.7-.2,1.1,2.2,5.4,3.5,6.1l2.5-8.1,4.4-4.1c-.8,2.4-7,13.1-2,13l3.2-2.5c5.2,8.1-10.9,3.2-7.7,12.2l9-.8c.3,1.3-1.1.3-1.6,1.4-2,4.7.4,6,4.8,5.5-1.3,2.8-6.1,2.4-7.4,4-1.3,1.6-1.5,4.5.9,3.3l2.8,4.5h1.2c1.4-4.8,9.3-.9,13.1-3.2,2.2-4.7,14.2-2.4,18.7-4.1,2.1-3.8,4.8-6,6.4-8.7,1.9-3.2,2.1-9.2,5.9-11.2,3.6-2,2.7.6,5.7-3.7,0-.2,0-1,.4-1.6.6-.7,1.9-.7,2-.8.2-.2-2.7-4-1.6-5.6,2-.9,4.6-.2,5.6-2.5-.4-1.7.8-4.2-.8-5.7h0l-.3-.4h0ZM752.5,601c-1.4,1.2-3.8-1.7-4.1-3.2,1.6-.9,5.1,2.3,4.1,3.2ZM792,632.7l-1.2-1.6h1.6l-.4,1.6h0ZM807,684.8h-2.4v-.8h2.4v.8Z"/>
    <path class="st2" d="M802.9,704.6l-2.7-4.3c-1.1.2-1.8-.3-2-.6-.9-1.1-.4-3.3.7-4.6.8-.9,2.1-1.3,3.5-1.7s1.4-.4,2-.6c-1.5-.2-2.5-.7-3.2-1.5-.9-1.2-.9-2.9,0-5.2l-7,.6-.3-.7c-.6-1.8-.6-3.2,0-4.4,1-2,3.3-2.7,5.4-3.3,1.5-.5,3-.9,3.3-1.7,0-.4,0-.9-.3-1.6l-2.6,2h-.3c-1.4,0-2.1-.6-2.4-1.2-1.1-1.8,0-5.1,1.5-8.8l-.6.6-2.8,9-1.1-.6c-1.5-.9-4.3-5.5-4-7.2.2-1,1-1.4,1.6-1.7.9-.4,1.7-.8,0-4.4h0c-.3,1.9-1,3.5-1.6,4.9-1.1,2.4-2,4.6-.8,8l.4,1-1.1.3c-4.2,1-5-1.7-5.5-3.4-.2-.7-.4-1.4-.7-1.7-.4-.3-1-.5-1.7-.6-1-.2-2.2-.4-3-1.4-.5-.7-1-1.9-1.6-3.4-.5-1.2-1-2.7-1.6-3.8l-1,3.2-1-.3c-2.1-.7-2.6-2.7-2.9-4.3-.2-.7-.3-1.3-.6-1.8-.4-.7-.9-1.4-1.4-2.1-1.4-1.8-2.9-3.9-1.4-7l.5-1.1,2.9,2.2c1-3.1,3.9-3.6,6.6-4l-.6-1.5c-2.1,1.7-3.2,1.8-6.4.9l-.9-.2.2-.9c.6-3.5,1.8-5.6,3.6-6.5,2.7-1.3,5.9.3,9.4,2.1,2.7,1.4,5.5,2.8,7.7,2.6.7,0,2.1-1.6,3.1-3.7-.8,1.2-1.8,1.8-2.6,2.1-2.9,1.1-6.6-.7-10.1-4.7l-.4-.5.6-1.1-1.7.4-.4-.5c-.7-.9-.5-1.9,0-2.8-.5.4-.8.6-1.1.7h-.5l-3.4-3.3v-.3c0-.4-.3-1.5.5-2.1.6-.5,1.3-.2,1.9,0-.3-.6-1-1.1-1.6-1.4l-3.7,4.4-1.5-2.4c-1.1,3.2-2.1,3.1-2.5,3.1-1.1,0-1.3-1.4-1.4-1.8v-.2l1.5-4.7-1-1.6,1.3.7,1.7-5.1.4-.2c3-1.3,5.8,2,7.8,4.4.5.6,1.2,1.5,1.7,1.8,0-.3-.3-.8-.4-1.1-.3-.9-.7-1.8-.5-2.7l-2.3-4.6,7.5-2.5c-.2-.4-.4-.8-.7-1-1.2-.8-3.5-.4-5.3,0l-1.4.3-.4-.6c-1.1-2-1.5-3.7-1-5.1.5-1.8,2.1-2.6,3.4-3.3.6-.3,1.4-.8,1.5-1.1.2-.5,0-1-.5-1.9-.7-1.5-1.7-3.7.7-6.4.4-.5,1-.7,1.5-.8.7-.2,1.3-.4,1.5-1.6l-2.2-1c-1,1.7-3.3,5.3-5.1,5.6-.5,0-1,0-1.4-.5l-.3-.3v-.4c0-1.5-.5-3-1.1-4.6-.8-2-1.6-4-1-6.2.7-2.5,2.3-4.5,3.8-6.3.8-1,1.6-2,2-2.8.4-.9.7-1.9.9-2.8.7-2.8,1.5-5.7,7.1-6.5h.4l.3.2c.8.5,5.5,1,9.8,1.3-1.6,0-3.2-.3-4.7-.5-1.3-.2-1.8-.8-2-1.3-.6-1.3.5-2.9,1.2-4.1v-.2c2.7-3.8,5.8-4.2,9.1-3.8-.3-.2-.7-.5-.9-.9-.7-1.1.2-2.7,1.6-4.8l-7,6.2-3.1-1,.9-1.1c1.6-2,2.3-4.1,2.3-6.5-1,.3-2.1.5-3.2.7-3.7.7-5.7,1.2-5.5,4.6,0,1,.3,1.6.6,1.9.3.2.8.3,1.4,0l1.2-.2v4.9l-1.2-.3c-1.8-.4-2.1,0-2.8,1.1-.4.6-.8,1.3-1.6,2-4.9,4.2-7.7,5.4-9.1,4l-.4-.4,1.5-8.3h-.2c0,1.5-.5,2.9-.9,4.1-.9,2.5-1.4,4.1,1.2,5.9l1.2.8-4.2,3h-.2c-.9.3-1.4,0-1.7-.2-.9-.7-.8-2.1-.7-3.7,0-1.1.2-2.8-.3-3.1-.2-.2-.6-.3-1-.3v.6c.6,4.9-1.1,6.6-4.3,8.2,1.3,2.5.7,6.8,0,8.7-.3.8-.8,1.4-1.4,1.9-.3.3-.7.6-.7.9-.2.7-.2,1.5,0,2.4,0,1,0,2-.2,3-.7,2.3-3.4,2.9-5.2,3.3-.3,0-.6,0-.9.2.5.5,2,1.1,3.1,1.5,2.8,1,6.5,2.5,5.6,6.1v.5l-.5.2c-3.2,1.5-4.9,1-6.7,0,1,1.6,1.9,3.4,1.5,5.7l-.2,1.1-4.3-1.2,2.1,3.5-2.7,4.6,3.9.4-4.5,9.8c1.6,3.8,1.8,7.7,2.1,11.6.3,4.2.5,8.2,2.4,11.7.6,1.2,2,2.7,3.2,4.1,2.1,2.4,4.2,4.7,4.4,6.7.2,1.9-.3,3.5-1.5,4.5-1.1,1-2.8,1.4-4.6,1h-.3l-.2-.3c-1.1-1.1-1.7-2.3-2.4-3.5-.5-1-1-1.9-1.7-2.7-1-1.1-2.8-2.2-4.5-3.2-2.3-1.4-4.5-2.7-5.4-4.3s-1.1-3.5-1.3-5.3c0-.8,0-1.5-.3-2.2-.4,4.2,0,7.5,3.8,10.4,1.4,1.1,2.4,1.7,3.2,2.2,2,1.3,2.8,1.8,5.9,5.7.5.6.9,1.2,1.3,1.7,1.4,2,2,2.8,5.7,2.7h1v1c0,3.6,1.3,6.2,2.7,9.1,1.6,3.4,3.3,6.9,2.6,11.9v.5c0,.3,0,.8-.4,1.2s-1.2.4-1.9.3c-2.1-.4-4.3-2.8-5.4-4.7-.5-.8-1.5-2.7-1.7-4.5-2.2.9-4.2,1.6-7.2,1.1l-1-.2.2-1c.8-3.6-1.8-4.6-5.9-5.9-1.1-.3-2.3-.7-3.3-1.1l-1.1-.5,1.6-2.1c-1.1,0-1.8-.8-2.4-1.7-.3-.4-.5-.7-.8-.9-.5,4.2-1.5,6.1-3.1,6.1h0c-3.2,0-5.9-9.5-6.4-13.3l-.5-.3c.8,2.2,2,6.5,1.2,8.4-.2.6-.7,1-1.2,1.2-2.6.7-9-7.1-9.4-7.6-.7-1.1-1.3-3-2-5-.6-1.8-1.6-4.8-2.3-5.3,0,.2-.3.6-.5.8-.4.9-1,2.1-2.3,2.4h-.4l-2.1-1.2c-3.4,7.1-7.4,6.2-8.6,5.7-3.9-1.6-6.2-8.4-3.5-15.3,1.1-2.8,3.7-4.4,6.1-5.9s3.2-2,3.9-3.1c.5-.8.6-2,.7-3.2.2-1.6.3-3,1.3-3.8.5-.4,1.2-.6,2-.8,1.1-.3,2.3-.6,2.8-1.5.2-.9,1.1-7.9,1.1-8.6v-.9h.9c1.5,0,2.8-1.6,3.7-2.9,1.1-1.5,6.3-10.8,6.9-12.3.9-2.4.5-4.4-1.4-6.4-2.6-2.7-5.8-.2-10.4,3.8-2.9,2.6-5.7,5-8.4,5.1h-.8l-.2-.7c-1.4-5.5-7-6.6-12.8-7.8-3.7-.7-7.6-1.5-10.4-3.5-2.8-2-4.2-3.8-4.4-5.7-.2-2.2,1.2-3.8,2.4-5.1.8-.9,1.6-1.7,1.5-2.4-2.5-3.7-8.2-8.8-13.3-9.1-2.1,0-3.9.6-5.3,2.3l-1.3,1.5-.4-2c-.5-2.3-.7-4.8-.9-7.1-.4-4-.7-8.1-2.4-11.6-.4-.8-.9-1-1.6-1.2-.6-.2-1.2-.4-1.8-.9-1.9-1.7-2-4-2.1-5.8,0-1.1,0-2.2-.6-2.7-.7-.9-2.9-.8-4.9-.8s-3.2,0-4.5-.3c-1.7-.5-3.3-2-4.7-3.3-.9-.8-1.8-1.7-2.3-1.8-4.7-1.4-8,.4-11.9,2.4-1.2.6-2.5,1.3-3.9,1.9-.8.4-1.8.4-2.6.5-.8,0-1.6,0-2.3.4-.4.2-3.6,2.3-4.9,3.2.4,1.1,1.1,3,.3,4.6-.5.8-1.3,1.4-2.5,1.6-1.6.3-11.7-.5-13.3-1-2-.6-3.2-2.6-4.5-4.5-1.5-2.5-2.4-3.7-3.7-3.4l-12,14.1c-3.5,2.3-5.1,1.5-6.8.2-.6-.4-1.1-.9-1.9-1-1.6-.4-2.1-.3-2.4,0s-.5.8-.7,1.5c-.2.8-.4,1.6-.9,2.5-2.8,4.8-19.9,18.7-24.9,21.1h-1.4c-.9,0-1.4,0-1.9-.3-.5-.4-.5-1-.5-1.6v-1c-.6-7.7-.3-15.8,0-23.7.2-7.1.5-14.5,0-21.5v-1.1h274.9l-.2,1.2c-.4,2.2-.2,5.7,0,8.5v1.5c.4,10.7,1.5,21.7,2.4,32.4.6,6.3,1.2,12.9,1.7,19.2l4,56.9,44.9,1.6.4.2h0c1.4,1.4,1.2,3.2,1.1,4.6v2.3c-.9,2-2.8,2.3-4.3,2.6-.5,0-1.1.2-1.5.3,0,.8.9,2.7,1.3,3.4.5.9.8,1.4.3,2-.2.3-.6.4-.9.4s-.9.2-1.1.4c0,.2,0,.4-.2.7,0,.3,0,.6-.2.9-1.8,2.7-2.4,3.1-3.7,3.2-.5,0-1.1,0-2.3.8-2.1,1.1-2.9,3.9-3.8,6.5-.5,1.6-1,3.1-1.7,4.4-.7,1.2-1.7,2.3-2.7,3.5-1.3,1.5-2.6,3.1-3.7,5.1l-.2.3h-.3c-1.8.8-4.6.9-7.5,1-4.5,0-9.6.3-10.7,2.7v.3l-.4.2c-1.9,1.2-4.4,1.1-6.8.9-3.3-.2-5.3-.2-5.9,1.7l-.2.7h-2.4l.6-.5h0ZM801,697.8l3,4.7c1.3-2.7,4.6-2.5,7.6-2.4,2,0,4.1.2,5.4-.5,1.8-3.2,7.2-3.4,12.3-3.6,2.5,0,5-.2,6.5-.6,1.2-2.1,2.5-3.7,3.7-5.1.9-1.1,1.8-2.2,2.5-3.3.6-1,1.1-2.4,1.5-3.9.9-2.9,1.9-6.1,4.7-7.7,1.5-.8,2.4-.9,3-1,.5,0,.8,0,2.2-2.2h0c0-.4,0-1.1.6-1.8.4-.5.9-.7,1.4-.9-.8-1.5-2.1-3.9-1-5.5l.2-.2h.3c.8-.5,1.6-.6,2.4-.7,1.3-.2,2.2-.4,2.6-1.2v-1.9c0-1.2,0-2.1-.3-2.7l-44.4-1.6h-1.7l-4.1-58.7c-.5-6.3-1.1-12.8-1.7-19.2-1-10.7-2-21.8-2.5-32.5v-1.5c0-2.5-.3-5.4,0-7.7h-270.5c.3,6.7,0,13.8-.1,20.6-.3,7.8-.5,16,0,23.5v1.1h1.2c5.3-2.7,21.4-16,23.9-20.2.4-.6.5-1.3.7-2,.3-1.1.5-2.2,1.6-2.8.9-.5,2.1-.5,3.9,0,1.1.3,1.9.9,2.5,1.4,1.3.9,2,1.5,4.4-.2l12-14.2h.3c3.1-1.1,4.8,1.8,6.3,4.1,1,1.6,2.1,3.3,3.3,3.7,1.4.4,11.3,1.2,12.4,1,.6,0,1-.3,1.1-.6.4-.7,0-2.2-.4-2.9-.2-.7-.4-1.1,0-1.6.4-.7,6.1-4.1,6.1-4.1,1-.4,2-.4,2.8-.5.8,0,1.5,0,2-.3,1.3-.5,2.5-1.2,3.7-1.8,3.9-2.1,8-4.2,13.4-2.5.9.3,1.9,1.2,3.1,2.3,1.3,1.2,2.7,2.5,3.9,2.9,1,.3,2.5.3,3.9.3,2.5,0,5.2,0,6.5,1.6.8,1,.9,2.5,1,3.8,0,1.7.2,3.3,1.5,4.4.3.2.7.4,1.1.5.9.3,2.1.7,2.8,2.3,1.9,3.9,2.2,8.1,2.6,12.3.2,1.8.3,3.5.6,5.1,1.6-1.2,3.4-1.8,5.5-1.6,6.1.4,12.4,6.4,14.9,10.2h0v.3c.4,1.7-.8,3.1-1.9,4.4-1.1,1.2-2,2.3-1.9,3.6,0,1.2,1.3,2.7,3.6,4.3,2.5,1.8,6.1,2.5,9.6,3.2,5.9,1.2,12,2.4,14.1,8.4,1.9-.5,4.2-2.5,6.4-4.5,4.2-3.7,9-7.9,13.2-3.7s3.1,5.4,1.9,8.5c-.7,1.8-6.1,11.3-7.2,12.7-1,1.4-2.4,3-4.3,3.6-.2,2.2-1,8-1.2,8.6-.9,1.8-2.8,2.3-4.1,2.6-.4,0-1,.2-1.2.4-.4.3-.5,1.5-.6,2.5,0,1.3-.3,2.8-1,4-.9,1.6-2.7,2.7-4.6,3.8-2.2,1.3-4.4,2.7-5.3,4.9-2.2,5.6-.5,11.5,2.4,12.7,2.1.9,4.5-1.2,6.4-5.7l.4-1,3.3,1.9c.2-.2.5-.7.7-1.2.4-.8,1.3-2.6,3-1.8,1.4.6,2.2,2.9,3.4,6.5.6,1.8,1.2,3.7,1.8,4.5,1.1,1.7,5.7,6.2,7.1,6.7.4-1.3-.9-6.5-1.7-7.7,0-.2-.8-.4-1.3-.5-.9-.2-1.8-.5-2.1-1.4s.3-1.8.5-2.1l.5-.7,6.9,4v.5c.5,4.6,3.3,11.8,4.5,12,0,0,.8-.6,1.3-5.5v-1.1l1.1.2c1.8.3,2.6,1.3,3.1,2.1.7.9.9,1.2,2.8.4l3.5-1.5-3.9,5.2c.6.2,1.2.4,1.9.6,3.5,1.1,7.9,2.4,7.5,7.1,2.1.2,3.7-.5,5.7-1.3l2.9-1.2-.6,2c-.3,1.1.2,2.9,1.3,4.7,1.2,2,2.9,3.6,4,3.8h0v-.4c.7-4.4-.8-7.5-2.4-10.8-1.3-2.6-2.6-5.4-2.8-8.9-3.7,0-4.8-1.4-6.4-3.6-.3-.5-.7-1-1.2-1.6-3-3.7-3.6-4.1-5.5-5.3-.8-.5-1.8-1.2-3.2-2.3-5.7-4.3-5-9.5-4.2-15.6l.4-2.6,1.5,1.8c1.6,1.9,1.8,4.2,2,6.5.2,1.7.3,3.3,1,4.5s2.7,2.4,4.7,3.6c1.8,1.1,3.8,2.3,4.9,3.6.8.9,1.4,2,2,3.1.5,1,1.1,2,1.8,2.8,1.1.2,2,0,2.6-.6.7-.6.9-1.6.8-2.8,0-1.4-2.1-3.7-3.9-5.6-1.4-1.6-2.8-3.1-3.5-4.5-2.1-4-2.4-8.3-2.7-12.5-.2-3.8-.5-7.7-2.1-11.3l-.2-.4,3.7-8.1-4.2-.4,3.6-6.2-4.2-6.8,6.9,2c0-1.4-.9-2.5-1.8-3.9-.5-.8-1-1.6-1.5-2.5-.3,0-.5,0-.8-.2-1.6-.6-3.2-2.7-3.4-4.2v-.7l.5-.3c1.7-.9,4.1.7,5.2,2.2.7,1,.6,1.7.4,2.2.7.3,1.2.7,1.8,1,1.9,1.1,2.8,1.6,5.3.6,0-1.5-1.8-2.3-4.5-3.3-2.3-.9-4.5-1.7-4.6-3.7,0-1.2,1.3-1.5,2.7-1.8s3.4-.7,3.7-1.9c.2-.7.2-1.5,0-2.3,0-1,0-2,.2-3.1.2-.8.8-1.3,1.3-1.8.4-.3.7-.7.8-1,.8-2.3.9-6.6-.3-7.7l-1.1-1,1.4-.7c3.4-1.7,4.6-2.6,4.4-5.9l-4.1-.5,1-1.4c1.5-2.1,5.6-2.2,7.1-1.1.4.3.7.7.9,1.2,0-1,.4-1.9.7-2.8.5-1.4,1-2.8.8-4.3v-1.1h4.6l-1.7,9.2c.7-.2,2.4-1,6-4,.5-.5.9-1,1.2-1.5.7-1.1,1.4-2.4,3.7-2.2v-.2c-.7,0-1.4-.2-1.9-.6-.8-.6-1.3-1.8-1.4-3.4-.3-5.4,3.8-6.1,7.1-6.7,1.4-.2,2.9-.5,4-1.1l1.3-.6.2,1.4c.3,2.4,0,4.6-1,6.7l11.1-9.9-.4,2.7c-.2,1.4-1.4,3.1-2.6,4.9-.7,1.1-1.9,2.8-2,3.5.2.3.8.4,1.3.6,1,.3,3.1.9,2.4,3.4l-.3.9-.9-.2c-4.9-1.3-8.1-1.8-10.7,2.1v.2c-.5.5-1.3,1.8-1.2,2.2h.4c3.1.4,8.9,1.2,12.2,0l1.3-.5v4.3l-.3.3c-1.3,1.3-16.1,0-19.3-1.1-4,.6-4.5,2.3-5.1,5-.3,1-.5,2.1-1,3.2-.5,1-1.3,2.1-2.2,3.2-1.3,1.7-2.9,3.6-3.4,5.6-.4,1.6.2,3.2.9,5,.5,1.3,1,2.7,1.2,4.1,1-1,2.7-3.5,3.4-4.9l.4-.8,5.1,2.3v.7c-.2,3.2-1.9,3.8-3,4.1-.2,0-.5.2-.6.3-1.5,1.7-1,2.7-.4,4.2.5,1,1,2.1.6,3.4-.4,1.1-1.4,1.7-2.5,2.2-1,.6-2.1,1.1-2.4,2.1-.2.7,0,1.7.5,2.9,2.2-.5,4.9-1,6.8.3,1,.7,1.5,1.7,1.8,3.1v.8l-6.9,2.4,1.7,3.5-.3.4c0,.3.3,1,.4,1.4.4,1.1.9,2.2.4,3.1-.2.3-.6.8-1.4.9-.7,0-1.2-.2-1.9-.8.3.4.6.8.7,1.2.4.9.3,1.8-.2,2.5-.3.5-.8.5-1.2.5l.9.9,1.6-1.6c2.2-2.2,3.2-3.2,4.2-3.1.4,0,.7.2,1,.5,1.4,1.7-.5,3.5-2.1,4.9-.4.4-1.2,1.1-1.7,1.7l4.1-1-2,3.8c2.7,3,5.5,4.4,7.4,3.7,1.6-.6,2.6-2.6,3-5.7l-3.4-4.5h4.9l-.4,1.5.4.2c1.7.8,2.3,2.7,1.8,5.4-.6,3.3-3.3,8.3-6,8.5-2.8.2-5.9-1.3-8.8-2.8-3-1.5-5.8-3-7.6-2.1-1,.5-1.8,1.9-2.3,4.2,2.2.6,2.7.2,4.7-1.6l1.1-1,2.7,6.6-2,.2c-3.7.4-5.6.8-5.8,3.9v1.8l-3.7-2.7c-.2,1.3.5,2.3,1.6,3.8.5.7,1.1,1.5,1.6,2.4.4.7.6,1.5.7,2.3.2.9.4,1.7.7,2.2l1.2-4.2,1.2.9c1.4,1.2,2.4,3.7,3.3,6,.5,1.2.9,2.4,1.3,2.8.4.5,1.1.6,1.8.7.9.2,1.9.4,2.7,1.1.8.7,1,1.8,1.3,2.7.4,1.5.6,2.3,2,2.2-.9-3.5.2-5.9,1.2-8.3.8-1.7,1.5-3.4,1.5-5.6v-.8h.9c1.3-.3,2.2-.4,2.7,1,0,0,0,.3.2.5,2,4.5,1,6.1-1.1,7.1,0,0-.4.2-.5.2,0,.7,1.1,2.7,2,4l2.1-6.7,7.6-7.1-1.4,3.9c-.2.5-.5,1.2-1,2.1-1.1,2.4-3.7,7.9-2.8,9.3,0,0,0,.2.4.2l3.8-2.9.6.9c1.1,1.7,1.5,3.1,1,4.3-.6,1.7-2.7,2.3-4.6,2.9-1.8.5-3.6,1.1-4.2,2.3-.3.6-.3,1.3,0,2.1l8-.7v-.9h4.4v2.8h-3.3v.2c-.4.5-.9.6-1.2.6h-.3c-.6,1.6-.8,2.8-.3,3.4.5.7,2,.9,4.2.7l1.8-.2-.8,1.6c-1,2-3.2,2.7-5.1,3.2-1,.3-2.1.6-2.5,1-.6.7-.8,1.6-.7,2,0,0,.2,0,.4-.2l.8-.4.7-.9h0ZM853.4,672.4h0ZM727.5,671.7h0ZM775.4,628.9h0ZM769,625.9l1.2,1.9,2.7-3.3h.6c.8.2,1.7.7,2.4,1.4-.4-.4-.7-.8-1.1-1.3-1.5-1.8-3.4-4.1-5-3.9l-1.5,4.6.3.2c.2,0,.4.3.4.5h0ZM778.2,625.3h0ZM750,598.9c.4.6,1,1.2,1.5,1.3h0c-.3-.4-.8-1-1.5-1.3ZM751.8,600.2h0ZM769.9,569.4v2.8l1.4-1c-.7-.6-1.1-1.2-1.3-1.9h-.1ZM797.6,568.5h4.4v-.3c-1.3.3-2.9.4-4.4.3ZM802.6,568.4h0Z"/>
  </g>
  <g id="_x3C_newJersey_x3E_">
    <path class="st4" d="M930.8,439c.8-.2,2.3.3,3.5-.1.3-.1,4.4-3.7,4.6-3.9,2.6-2.8,6.3-14,6.5-17.9,0-2.3,0-4.3-.8-6.5l-58.6-36.6c-8.5,4.8-8.8,14.9-13.9,21.5-2.6,3.5-14.2,12.5-15,14.3-2,4.4,4.5,9.7,3.5,13.2-.3,1-1.7,1.7-2.2,2.7-.7,1.2-.9,3-1.7,4-1.5,1.8-5.3,1.4-6.2,4l.8,18.4c1.2,1.8,5.5-.4,7.8,1.9,3.1,3.1.7,9.6,1.9,13.5,1.1,1.5,4.1.2,5.2.9.4.2,2.1,5.7,3.3,6.8,1.5,1.4,3.3.9,5,2.4s4.6,7.7,6.1,10.2c1.3,2.1,5.7,4.7,2.2,7.4-8.6,6.9-20.5,6.1-26.3,17.1-2.5,4.7-1,7.5-7.2,9.5-3.8,1.2-7,.6-10.5,2.5-2.4,1.3-6.6,6-8.4,8.3-1.2,1.5-6.3,9-6.5,10.2-.5,3.5,3,4.4,3.2,6.6,0,1.5-4.5,4.2-2.6,8.2,1,2,4.6,3.3,6.4,5.1,2,1.9,9.8,11.3,11.1,12.1.9.5,2.6,0,4.3,1,2,1.2,5.2,5.5,6,7.8l1.2.4c4.6-3.1,6.9-.3,11.2,1,6,1.9,9.4,0,7.9,9.1-.5,3.2-8.8,12.7-4.9,15.6,4.9-.3,14.2-3.1,10.6-9.4,5.7.7,6.4-6.9,8.8-11.1,2.4-4.3,8.7-14.5,14-14.9,2-.2,4.1,1.5,6.3.6.2,0,2.5-2.5,2.5-2.7.2-.6-.6-2.5-.7-3.6-.2-3.4.8-2,2.3-4.6,4.3-7.2,1.6-5,1-11.3-.5-5.3,2.8-5.2,5.5-7.9s0-1.3.2-1.4c0,0,.9,0,1.6-.8.3-.3.6-.5.8-.8,6.8-3.8,4-8.4,4.1-14.7,1.1-2.7,3.6-7.3,3.9-10.3,0-1.4-1.9-1.9-1.5-3.5,6.1.3.2-5,2.6-8,1-.8,2.5-.7,3.5-.4,1.7.6.7,1.9,2,1.8.4-3.4.4-7.6.9-10.9.8-4.9,6.1-24.1,3.2-27-.4-.4-10.3-4.7-11.4-4.9-3-.6-9.1.3-10.6-3.2-.8-1.8,5.2-2.2,6.8-3,7.4-3.4,15.8-12.5,2.2-13.7.7-1.6,2.3-4.4,4.1-4.9h.4Z"/>
    <path class="st2" d="M867.8,610.6l-.3-.2c-3.4-2.5-.3-7.8,2.3-12.1,1-1.7,2.1-3.5,2.2-4.4,1-6.2,0-6.4-3.6-7.1-1.1-.2-2.3-.4-3.6-.9-1.1-.4-2.1-.8-3-1.2-2.6-1.2-4.3-2-7.3,0l-.4.3-2.1-.7-.2-.5c-.8-2.2-3.8-6.3-5.6-7.3-.8-.5-1.6-.5-2.4-.5s-1.4,0-2-.4c-.9-.5-3.3-3.2-7.1-7.5-1.8-2-3.5-4-4.3-4.7-.6-.6-1.6-1.2-2.6-1.8-1.6-1-3.3-2.1-4-3.5-1.6-3.2.3-5.6,1.6-7.3.4-.5.8-1.1.9-1.3,0-.5-.5-1.1-1.1-1.7-1-1.1-2.4-2.6-2-5.1.2-1.7,6.1-10,6.7-10.7,1.9-2.3,6.1-7.2,8.7-8.6,2.2-1.2,4.4-1.5,6.4-1.7,1.4-.2,2.8-.4,4.3-.8,3.8-1.2,4.3-2.6,5-5.1.4-1.1.8-2.4,1.5-3.9,3.7-7.1,9.9-9.5,15.8-11.8,3.7-1.5,7.5-3,10.7-5.5.6-.5.9-.9.9-1.3,0-.9-1-2-1.9-3-.6-.6-1.1-1.2-1.5-1.8-.5-.8-1.2-2.1-1.9-3.5-1.3-2.5-3-5.6-4-6.5-.6-.6-1.3-.8-2.1-1-.9-.2-1.9-.5-2.9-1.4-.9-.8-1.7-2.8-2.7-5.2-.2-.6-.5-1.2-.6-1.5h-1.3c-1.3,0-3.1.2-4.1-1.1v-.3c-.7-1.7-.6-3.9-.5-5.9,0-2.8.2-5.7-1.3-7.2s-2.5-.9-4-.9-3.1,0-4-1.2l-.2-.2-.9-18.9v-.2c.8-2,2.6-2.6,4.1-3.1,1-.3,1.9-.6,2.4-1.2.3-.4.6-1.2.8-1.9.2-.6.4-1.3.7-1.9s.8-1.1,1.3-1.5c.4-.4.8-.8.9-1,.3-1.2-.7-3-1.7-4.8-1.5-2.7-3.1-5.7-1.8-8.6.4-.9,2.4-2.8,6.8-6.6,3.3-2.9,7-6.2,8.3-7.8,1.8-2.4,3-5.2,4.2-8.2,2.1-5.1,4.3-10.4,9.9-13.6l.5-.3,59.4,37.2v.4c.8,2.2,1.1,4.3,1,6.9-.2,4-3.9,15.5-6.8,18.5,0,0-4.4,3.9-5,4.2-.9.3-1.9.3-2.6.2h-.8c-.9.3-2,1.7-2.8,3.1,4.1.6,6.3,2.1,6.7,4.4.7,4.2-5.4,9-10,11.1-.6.3-1.5.5-2.5.7s-3.1.7-3.7,1.1c.9,1.9,4,2,6.7,2.2,1.2,0,2.3.1,3.2.3.8.2,11.1,4.5,11.9,5.2,2.5,2.4.6,11.7-1.8,22.7-.5,2.2-.9,4.1-1.1,5.1-.3,1.9-.4,4.1-.6,6.2,0,1.6-.2,3.2-.4,4.6v.8h-.9c-1.4,0-1.7-.9-1.9-1.3,0-.3,0-.4-.5-.5-.8-.3-1.8-.3-2.5,0-.6.9-.2,2.2,0,3.4.4,1.4.8,2.7,0,3.8-.5.7-1.3.9-2.1,1l.3.3c.5.5,1.1,1.3,1,2.3-.2,2.4-1.7,5.7-3,8.3-.4.8-.7,1.5-1,2.2,0,1.4,0,2.8.3,4.1.4,4.1.8,8-4.7,11.2l-.4.4-.3.3c-.5.5-1,.8-1.4.9,0,.4,0,.9-.5,1.3-.9.9-1.8,1.5-2.6,2-1.8,1.2-2.9,1.9-2.6,5.1.2,2,.6,3,.9,3.9.8,2.2.9,3.1-2,8.1-.7,1.1-1.3,1.7-1.7,2-.4.4-.6.5-.5,2,0,.4.2,1.1.3,1.6.3,1.1.4,1.7.3,2.3,0,.6-2.7,3.2-3.1,3.4-1.6.7-3.1.2-4.4,0-.8-.2-1.5-.4-2.2-.4-3.3.3-8.3,5.6-13.2,14.4-.6,1.1-1.1,2.3-1.6,3.7-1.3,3.3-2.8,7.4-6.6,7.9.6,1.8.2,3.1-.3,4-2,3.8-8.6,5.2-11.8,5.4h-.4l.3-.4h0ZM857.8,581.5c1.7,0,3.2.7,4.7,1.4.9.4,1.8.8,2.8,1.1,1.3.4,2.4.6,3.4.8,4.2.8,6.5,1.6,5.2,9.4-.2,1.2-1.2,3-2.5,5.1-1.9,3.3-4.5,7.7-3.1,9.3,3.2-.3,8.3-1.7,9.7-4.3.6-1,.5-2.2-.3-3.6l-1-1.7,2,.2c3.2.3,4.4-2.3,6.1-6.7.5-1.4,1.1-2.8,1.7-4,3.1-5.6,9.2-15,14.8-15.4,1,0,2,.2,2.9.5,1.1.3,2.1.6,3,.3.4-.4,1.6-1.7,2-2.2,0-.3-.2-.8-.3-1.2-.2-.7-.4-1.4-.4-2-.2-2.4.3-3,1.2-3.7.4-.3.8-.6,1.3-1.5,2.6-4.4,2.5-4.9,1.9-6.3-.3-.9-.8-2.2-1-4.4-.4-4.3,1.6-5.7,3.5-6.9.7-.5,1.5-1,2.2-1.7v-.4c0-.3,0-.8.3-1.1s.5-.3.7-.3.6,0,.9-.5l.4-.4s.3-.2.4-.4v-.2h.3c4.5-2.5,4.3-5.2,3.8-9.3,0-1.4-.3-2.9-.3-4.5v-.4c.3-.7.7-1.5,1.1-2.4,1.1-2.5,2.6-5.5,2.8-7.6,0-.2-.2-.4-.5-.8-.5-.6-1.3-1.5-1-2.9l.2-.8h.8c1.5,0,1.7-.2,1.8-.2.2-.3,0-1.3-.3-2-.4-1.6-1-3.6.3-5.3l.2-.2c1.3-1,3.2-1,4.5-.5.3,0,.6.3.8.4,0-.8,0-1.5.2-2.3,0-2.2.3-4.4.6-6.4.2-1.1.6-3,1.1-5.3,1.3-5.6,4.2-18.8,2.4-20.8-1-.6-10-4.5-10.9-4.7-.8-.2-1.8-.2-2.9-.3-3.2-.2-7.2-.4-8.5-3.5-.2-.5-.2-1,0-1.5.6-1.2,2.4-1.6,5.1-2.2.9-.2,1.8-.4,2.1-.6,5-2.3,9.2-6.5,8.8-8.9-.3-1.5-2.5-2.5-6.3-2.9h-1.4c0-.1.5-1.4.5-1.4.5-1.1,1.4-2.8,2.6-4l-1.4-.3,3.5-1.1c.5-.2,1.1-.1,1.7,0,.6,0,1.2.1,1.7,0,.6-.5,4-3.4,4.4-3.7,2.3-2.4,6-13.4,6.2-17.2,0-2.1,0-4-.7-5.8l-57.8-36.1c-4.6,2.9-6.5,7.5-8.6,12.3-1.2,3-2.5,6.1-4.5,8.7-1.4,1.8-5,5-8.6,8.1-2.7,2.3-6,5.3-6.4,6-.9,2,.4,4.4,1.7,6.8,1.2,2.2,2.4,4.3,1.9,6.3-.2.8-.9,1.4-1.4,2-.3.3-.7.7-.9,1-.2.4-.4,1-.6,1.6-.3.9-.6,1.9-1.2,2.6-.8,1-2.1,1.4-3.2,1.8-1.4.5-2.4.9-2.8,1.7l.8,17.8c.4.2,1.3.2,2.1.2,1.7,0,3.8,0,5.4,1.5,2.2,2.1,2,5.5,1.9,8.7,0,1.9,0,3.7.2,5.1.4.3,1.4.3,2.2.2,1,0,1.9-.1,2.6.3.4.2.6.6,1.3,2.5.5,1.4,1.6,3.9,2.2,4.5.6.5,1.2.7,2,.9.9.2,1.9.5,2.9,1.4,1.3,1.1,2.9,4.1,4.4,7,.7,1.3,1.4,2.6,1.9,3.3.3.4.7.9,1.2,1.5,1.2,1.3,2.6,2.7,2.4,4.5,0,1-.6,1.9-1.7,2.8-3.5,2.8-7.4,4.3-11.2,5.8-5.9,2.3-11.4,4.5-14.8,10.9-.7,1.3-1.1,2.5-1.4,3.6-.8,2.6-1.5,4.9-6.3,6.5-1.7.5-3.2.7-4.6.9-1.9.3-3.8.5-5.7,1.5-2.2,1.2-6.1,5.6-8.1,8-1.5,1.9-6.1,8.7-6.3,9.8-.2,1.6.6,2.4,1.5,3.4.8.8,1.6,1.7,1.7,2.9,0,.9-.6,1.7-1.3,2.7-1.4,1.8-2.3,3.2-1.4,5.2.4.9,1.9,1.8,3.3,2.7,1,.7,2.1,1.3,2.9,2.1.8.8,2.5,2.6,4.4,4.8,2.3,2.7,5.9,6.7,6.6,7.1.2,0,.6,0,1.1.2.9,0,2,0,3.3.8,2.2,1.2,5.2,5.4,6.3,7.9h.3c1.5-.9,2.9-1.2,4.1-1.2l.4-.4h0ZM917.6,544h0ZM865.6,469h0Z"/>
  </g>
  <g id="_x3C_pennsylvania_x3E_">
    <path class="st4" d="M874.6,477.6c-1.6-1.4-3.5-1-5-2.4-1.3-1.2-2.9-6.6-3.3-6.8-1.1-.7-4.2.6-5.2-.9-1.3-3.9,1.1-10.5-1.9-13.5-2.4-2.4-6.6-.2-7.8-1.9l-.8-18.4c.9-2.6,4.7-2.2,6.2-4,.8-1,1-2.8,1.7-4,.5-1,2-1.7,2.2-2.7.9-3.5-5.5-8.9-3.5-13.2.8-1.8,12.4-10.8,15-14.3,5.1-6.7,5.4-16.7,13.9-21.5-2.9-8.2-5.5-5.1-10.8-6.7-1.6-.5-3-3.4-4.9-4.1-2.1-.8-3.6,1-5.1-.5-.4-.4-4.3-10.1-4.4-11.1-.8-5.1,1.9-11.8.6-16.1-.5-1.7-5-5.2-4.9-8.5l-10.9-1.7c-2.2-1.7-.4-5.7-1.6-8.2-3.2-7.2-14.5-5.6-20.8-5.7-.8,1.4-3.1.8-4.5.8-17,.2-34,0-50.9,0-85.2,0-170.6.5-255.6-.8v-26.1c-3.9,2.2-14.2,8.2-17.9,9-2.7.6-4.3-1.3-6.5,1.6-.6.9-1,2.3-1.6,3.3l-28.5,14.6-.8,1.6v218.2l75.7.8h273.5c3.9-11,17.4-13.3,26.9-8.1,1.1-1.2,5.9-4.9,7.3-5.3,3.9-1.1,8.1.2,12.2-2.8-.2-1.6-2.7-.5-3.7-2.4-.7-1.3-.9-3.8.2-5,2.7-3.2,4.8,1.2,7.6,1.7,5.8-11,17.7-10.1,26.3-17.1,3.4-2.8-.9-5.4-2.2-7.4-1.5-2.4-4.4-8.6-6.1-10.2h0v-.2h0Z"/>
    <path class="st2" d="M595.3,535.3h-62.7l-76.7-.8v-219.4l1.1-2.1,28.5-14.7c.2-.3.4-.8.6-1.2.3-.7.6-1.3,1-1.9,1.8-2.4,3.5-2.2,5-2,.7,0,1.4.2,2.1,0,3-.6,11.2-5.2,15.6-7.7.8-.4,1.5-.8,2.1-1.2l1.5-.8v26.8c66,1,133.2.9,198.2.8h108.4c1,0,2.2.1,2.6-.4l.3-.5h3.8c6.5-.1,15.4-.3,18.4,6.3.6,1.3.5,2.7.5,4.2s0,2.8.6,3.5l11.5,1.8v.9c0,1.8,1.6,3.8,3,5.5.9,1.1,1.6,1.9,1.9,2.7.7,2.4.3,5.4-.2,8.5-.4,2.6-.8,5.4-.4,7.7.2.9,3.6,9.5,4.2,10.6.3.3.6.3,1.6.1.8-.2,1.9-.4,3.1.1,1.2.4,2.1,1.5,2.9,2.5.7.7,1.3,1.5,1.9,1.7,1.4.4,2.6.5,3.7.5,3.4.2,5.6.6,7.8,6.8l.3.8-.7.4c-5,2.8-7,7.6-9.1,12.6-1.2,3-2.5,6.1-4.5,8.7-1.4,1.9-5.1,5.1-8.6,8.2-2.7,2.3-6,5.2-6.3,5.9-.9,2,.4,4.4,1.7,6.8,1.2,2.2,2.4,4.3,1.9,6.3-.2.8-.9,1.4-1.4,2-.3.3-.7.7-.9,1-.2.4-.4,1-.6,1.6-.3.9-.6,1.9-1.2,2.6-.8,1-2.1,1.4-3.2,1.8-1.4.5-2.4.9-2.8,1.7l.8,17.8c.4.2,1.3.2,2.1.2,1.7,0,3.8,0,5.4,1.5,2.2,2.1,2,5.5,1.9,8.7,0,1.9,0,3.7.2,5,.4.3,1.4.3,2.2.2,1,0,1.9-.1,2.6.3.4.2.6.6,1.3,2.5.5,1.4,1.6,3.9,2.2,4.5.6.5,1.2.7,2,.9.9.2,1.9.5,2.9,1.4l1.3,1.2h-.3c1.1,1.6,2.2,3.8,3.4,5.9.7,1.3,1.4,2.5,1.8,3.3.3.4.7.9,1.2,1.4,1.2,1.3,2.6,2.8,2.4,4.5,0,1-.6,1.9-1.7,2.8-3.5,2.8-7.4,4.3-11.2,5.8-5.9,2.3-11.4,4.5-14.8,10.9l-.3.6h-.7c-1.2-.3-2.3-1.1-3.2-1.8-1.9-1.4-2.4-1.6-3.4-.4-.7.8-.6,2.8,0,3.9.3.5.7.6,1.5.8s2.1.4,2.3,1.9v.6l-.4.4c-2.8,2.1-5.8,2.3-8.4,2.4-1.5,0-2.8.2-4.1.5-1.1.3-5.7,3.9-6.8,5.1l-.5.6-.7-.4c-5.1-2.8-11.5-3.3-16.7-1.3-3,1.1-6.9,3.6-8.7,8.9l-.2.7h-211.9,0ZM457.9,532.4l74.7.8h272.8c1.8-4.4,5.1-7.6,9.7-9.4,5.5-2.1,12.2-1.7,17.7,1,1.7-1.5,5.7-4.6,7.2-5.1,1.5-.4,3.1-.5,4.6-.6,2.2,0,4.2-.2,6.2-1.3h0c-.9-.2-2.1-.4-2.9-1.9-.8-1.5-1.1-4.5.3-6.1,2.4-2.8,4.7-1.1,6.2,0,.6.4,1.1.9,1.7,1.1,3.8-6.5,9.7-8.8,15.4-11.1,3.7-1.5,7.5-3,10.7-5.5.6-.5.9-.9.9-1.4,0-.9-1-2-1.9-3-.6-.6-1.1-1.2-1.4-1.7-.5-.8-1.2-2.1-1.9-3.4-1.3-2.4-3-5.6-4-6.5l-.3-.3c-.5-.4-1.1-.5-1.8-.7-.9-.2-1.9-.5-2.9-1.4-.9-.8-1.7-2.8-2.7-5.2-.2-.6-.5-1.2-.6-1.5h-1.3c-1.3,0-3.1.2-4.1-1.1v-.3c-.7-1.7-.6-3.9-.5-5.9,0-2.8.2-5.7-1.3-7.2s-2.5-.9-4-.9-3.1,0-4-1.2l-.2-.2-.9-18.9v-.2c.8-2,2.6-2.6,4.1-3.1,1-.3,1.9-.6,2.4-1.2.3-.4.6-1.2.8-1.9.2-.6.4-1.3.7-1.9s.8-1,1.3-1.5c.4-.4.8-.8.9-1,.3-1.2-.7-3-1.7-4.8-1.5-2.7-3.1-5.7-1.8-8.6.4-.9,2.4-2.7,6.8-6.6,3.3-2.9,7-6.2,8.3-7.9,1.8-2.4,3-5.2,4.2-8.2,2-4.9,4.1-9.9,9.2-13.1-1.7-4.5-3.2-4.5-5.7-4.7-1.2,0-2.5-.1-4.1-.6-1.1-.3-2-1.3-2.8-2.3-.7-.8-1.4-1.6-2.2-1.9-.7-.3-1.3-.1-2,0-1,.2-2.3.4-3.4-.8-.7-.7-4.6-10.8-4.7-11.6-.4-2.6,0-5.5.4-8.3.4-2.9.8-5.6.2-7.7,0-.4-.8-1.3-1.5-2-1.4-1.7-3.1-3.7-3.4-5.9l-10.3-1.7-.2-.2c-1.6-1.3-1.6-3.4-1.5-5.3,0-1.2,0-2.4-.3-3.3-2.4-5.5-10.6-5.3-16.6-5.1h-2.8c-1,1.1-2.7.9-4,.9h-.9c-10.9.1-22,0-32.8,0h-74.5c-65.3,0-132.9.2-199.2-.9h-1v-25.4c-.2.1-.4.2-.6.3-4.8,2.7-12.8,7.2-16.1,7.9-1.1.2-2,.1-2.8,0-1.4-.2-2-.2-3.1,1.2-.3.4-.5.9-.7,1.5-.3.6-.5,1.2-.9,1.7v.2c-.1,0-28.6,14.6-28.6,14.6l-.6,1.1v217.2h0Z"/>
  </g>
  <g id="_x3C_westVirginia_x3E_">
    <path class="st4" d="M662.1,574.9c-1.3-6.1-.6-13.1-3.4-19-.9-1.9-2.5-1.5-3.7-2.5-2.7-2.4-1.1-6.5-2.6-8.4-1.6-2.1-6.9-.6-9.9-1.5-2.6-.8-5.5-4.7-7-5.2-6.7-2-11.1,2-16.5,4.3-1.4.6-3.2.2-4.9.8-.4,0-5.5,3.4-5.7,3.7s2.7,4.8-1.3,5.6c-1.4.3-11.4-.6-12.9-1-3.7-1-4.9-9.3-9-7.9l-12,14.1c-4.6,3.1-5-.2-7.9-1-4.9-1.3-3.5,1.8-5,4.3-2.7,4.6-19.5,18.3-24.5,20.7-1.1.5-1.6,1.3-3.2.8v-48l-74.9-.8h-1.6l-.8-87.1c-.8-.3-5.6.4-6.5.8-5.4,2.3,1,8.8,1.6,12.7,2.3,14.7-2.7,19-6.7,30.7-2,5.8-1.8,11.8-3.2,17.1-.7,2.6-3.1,5.2-3.7,7.7-.4,1.8.1,3.7-.3,5.4-.4,1.6-3.9,4.1-4.5,7.7-.8,4.5,1.2,8.8-1.9,13.6-.9,1.3-5.9,3.2-8.1,5-6.4,5.1-10.2,14.4-16.8,18.2-1.4.8-3.6.7-5.1,1.4-1.6.7-3.2,2.5-4.6,2.7-3.3.5-2.6-5.2-9.6-3.9-1.1.2-5.4,4-6.1,4.9-1.2,1.5-1.5,3.3-2.4,4.9l2.4.4c-.3.6-1.4.9-1.6,1.2-1.9,0-5.3-.3-6.8.8-.8.5-.6,2.1-1.3,2.9-4.4,5-6,5.8-4.9,13.8l-4.1,2.6c3.6,4.1,4.2,7.2,2.4,12.5l-4-.8-4.5,7.3c-3.8-3.1-.5-6.7-1.8-10.4-1-2.3-5.5-.6-5.2-5.1-4.4.3-9.4,6.2-10.4,10.4-.6,2.8.5,7.2-1,9.4-.9,1.5-4.3.8-4.9,2.7,0,6.6,7.6,20-4.2,18.5-2.7,8.8-4.8,16.1-15.1,17.5-2.8.4-5.7,0-8.5,0v11.8c0,3.5-4.8,7.5-3.1,15.3.8,3.7,4.6,4.3,6.4,6.7s1,2.8,1.7,4c2.1,3.4,4.3,2.9,2.4,8.6,5.7.5,4.2,5.2,6.1,8.2,1,1.6,3.2,1.9,4.3,3.8,1.7,2.8.9,6.4,2.9,9.3,2.6,3.8,7.9,4.2,10.2,6.8,1.6,1.8,1.4,5.1,2.4,5.8s3.8.2,5.6.9c1.9.8-.3,1.4,5.1,1.9h4.1l-4.1,5.3c5.7,1,3.7,9,4.5,10.2.6,1,2.6,1,3.4,1.8,1.1,1,1.7,3.8,3,4.7,1.6,1.2,3.9.6,5.7,1.7,1.9,1.2,3.3,5.3,6.8,6.2,6.8,1.8,16.2-9.9,22.7-12,3.2-.2,7.6,7.8,12.1,7.3,1.9-.2,6.1-3.4,8.4-3.9,4.9-1,14,1.5,16.9-5.1.5-1.2-4.5-7.8,2-7,1.3,1.7,3.4,4.9,5.9,4.4,3.2-.6,10.1-7.7,14.3-8.6,5.4-1.2,5.7,3.1,7.8,2.9,1.9-.2,9.3-7.3,12.8-7.2.9-2.5-3.8-1.5-3.9-3.6-.2-2.6,5.6-3.6,6.3-5.9,1-3.3-1.9-3.1-3.1-4.8-2.2-3.3,0-6.4,1.5-9.3,3-5.4,8.5-9.6,13-13.8,2.1-2.3,7.8-7.9,8.7-10.4,1.8-4.8,1.2-10.9,4.3-15.3,1.5-2.1,8.2-6.1,8.8-7.1.7-1.2-.2-4,.3-5.8.9-3,7.5-5.2,7.9-11.6,0-1.3-.9-2.7-.6-3.8.3-1.4,5.8-6.8,7.7-7.1,7.1-1.1,6,7,9.3,10.1,1.6,1.4,8.7,3.9,10.7,3.6,8.5-1.4,9.6-13.8,13-19.7,2.9-5,2.3-2.5,4.1-8.9,1.8-6.3,3.6-5.9,6.5-10.6,3.1-4.8,7.6,5,8.9,5.8,3.3,1.9,5.5-8.4,7.2-10.9,3.2-4.5,4.3-2.3,6.5-3.2,1.1-.5,3.1-3.5,4.5-4.5,1.3-1,3.3-1,4.5-2,1.9-1.7,1.3-5.3,3.4-8,2.7-3.5,8.7-4.1,8.8-9.2,0-3.1-1.4-5.8-.6-9.5.5-2.3,2-2.5,3.1-3.8-1.9-1.2,1.5-2.6,1.5-2.8,0-1.3-.9-2.8-.8-5,.2-3,1-10.1,4.9-5.3l34.6,28.5c1.7.3.9-.3,1.2-1.1,1.2-3.1,3.7-11.3,5.6-13.5h0v.2h.1Z"/>
    <path class="st2" d="M372.8,773.8c-.6,0-1.2,0-1.7-.2-2.5-.7-4-2.7-5.3-4.4-.6-.9-1.2-1.7-1.8-2-.7-.4-1.5-.5-2.4-.7-1.1,0-2.3-.3-3.3-1-.9-.6-1.5-1.8-2-3-.4-.7-.7-1.5-1.1-1.8-.2-.2-.8-.4-1.3-.6-.9-.3-1.8-.6-2.4-1.5-.3-.6-.4-1.4-.4-2.7,0-3.4-.3-6.6-3.4-7.1l-1.6-.3,3.8-5h-2.1c-3.6-.3-4.3-.7-4.8-1.6,0-.1-.2-.3-.5-.4-.7-.3-1.7-.3-2.7-.4-1.3,0-2.3,0-3.1-.6-.7-.5-1-1.5-1.3-2.7-.3-1.1-.6-2.4-1.3-3.2-.9-1-2.4-1.7-3.9-2.4-2.2-1-4.8-2.2-6.4-4.6-1.2-1.7-1.5-3.5-1.7-5.3-.2-1.5-.5-2.9-1.2-4-.5-.8-1.2-1.3-2-1.8s-1.7-1.1-2.3-2c-.7-1.1-1-2.3-1.3-3.5-.5-2.3-.9-3.9-4.1-4.2h-1.3l.4-1.3c1.2-3.5.7-4.1-.5-5.4-.5-.6-1.2-1.3-1.8-2.3-.4-.6-.6-1.3-.8-2s-.4-1.4-.8-1.9c-.6-.8-1.4-1.3-2.4-2-1.7-1.1-3.6-2.4-4.2-5.1-1.2-5.4.5-9.2,1.8-11.9.7-1.4,1.2-2.6,1.2-3.6v-12.8h9.3c9.6-1.3,11.6-8,14.2-16.6l.3-1h.8c2.3.4,3.8,0,4.6-.8,1.6-1.8.5-6.2-.4-10-.6-2.4-1.2-4.7-1.2-6.6v-.4c.5-1.6,2.1-1.9,3.3-2.2.7-.2,1.5-.4,1.7-.7.7-1.1.6-3,.6-5s0-2.9.2-4.1c1-4.7,6.4-10.8,11.3-11.2h1.2v1.1c-.1,1.9.7,2.1,2.1,2.5,1.1.3,2.4.7,3,2.1.6,1.7.3,3.4.1,4.8-.3,1.8-.5,3.1.5,4.4l4.2-6.8,3.8.7c1.3-4.5.7-7.1-2.5-10.7l-.8-.9,4.5-2.9c-.9-7,.5-8.7,4-12.5.4-.4.8-.9,1.2-1.4.2-.2.3-.6.4-1,.2-.7.4-1.5,1.1-2,1.2-.9,3.2-1,5-1l.6-1.1c.3-.6.6-1.2.9-1.9.4-1,.9-2.1,1.6-3.1.6-.8,5.2-4.9,6.7-5.2,4.8-.9,6.6,1.2,7.8,2.6.8,1,1.2,1.3,1.9,1.2.6,0,1.4-.6,2.1-1.2.7-.5,1.5-1.1,2.3-1.4.8-.3,1.7-.5,2.6-.7s1.8-.3,2.4-.7c3.4-2,6.1-5.5,8.9-9.3,2.4-3.2,4.8-6.5,7.8-8.8,1-.8,2.6-1.7,4.2-2.5,1.4-.7,3.3-1.7,3.7-2.3,1.8-2.8,1.7-5.4,1.6-8.2,0-1.6-.1-3.3.2-5,.5-2.5,2.1-4.5,3.3-6,.6-.7,1.2-1.4,1.3-1.8.2-.7.2-1.5.1-2.4,0-1,0-1.9.2-2.9.3-1.4,1.2-2.8,1.9-4.1.7-1.2,1.4-2.4,1.8-3.6.6-2.3.9-4.6,1.2-7.1.4-3.3.9-6.7,2-10.1,1.1-3.1,2.2-5.7,3.2-8.1,3-6.7,5.1-11.6,3.4-22.1-.2-1-.9-2.5-1.6-3.9-1.3-2.6-2.7-5.2-1.9-7.4.4-1.1,1.2-1.9,2.5-2.4.9-.4,6.1-1.2,7.2-.8l.7.2.8,86.8h.7l75.8.8v48.2c.4,0,.6-.2,1.1-.4.2,0,.5-.3.8-.4,5.1-2.5,21.5-16.1,24-20.3.4-.6.5-1.3.7-2,.3-1.1.5-2.2,1.6-2.8.9-.5,2.1-.5,3.9,0,1.1.3,1.9.9,2.5,1.4,1.3.9,1.9,1.5,4.4-.2l12-14.2h.3c3.1-1.1,4.8,1.8,6.3,4.1,1,1.6,2.1,3.3,3.3,3.7,1.4.4,11.3,1.2,12.4,1,.6,0,1-.3,1.1-.6.4-.7,0-2.2-.4-2.9-.2-.7-.4-1.1,0-1.6.4-.6,6.1-4.1,6.1-4.1,1-.4,2-.4,2.8-.5.8,0,1.5,0,2-.3,1.3-.5,2.5-1.2,3.7-1.8,3.9-2.1,8-4.2,13.5-2.6.9.3,1.9,1.2,3.1,2.3,1.3,1.2,2.7,2.5,3.9,2.9,1,.3,2.5.3,3.9.3,2.5,0,5.2,0,6.4,1.6.8,1,.9,2.5,1,3.8,0,1.7.2,3.3,1.5,4.4.3.2.7.4,1.1.5.9.3,2.1.7,2.8,2.3,1.9,3.9,2.2,8.2,2.6,12.3.2,2,.4,4,.7,5.8l2.3-.7-2.2,2.6c-1.3,1.6-3.1,6.7-4.3,10-.4,1.3-.8,2.4-1.2,3.2v.3c0,.3,0,.8-.5,1.2s-1.2.3-1.9.2h-.2l-.2-.2-34.8-28.6c-.9-1.2-1.5-1.3-1.6-1.3-.3,0-1.3,1.4-1.6,6,0,1.1.2,2.1.4,3,.2.6.3,1.3.4,1.9,0,.6-.4.9-.9,1.1-.6.4-1,.6-1.2.8h0l1,.6-.7.9c-.4.5-.9.9-1.3,1.2-.7.6-1.3,1-1.6,2.2-.5,2.1-.2,3.8.2,5.7.2,1.2.4,2.4.4,3.7,0,3.7-2.8,5.4-5.3,6.9-1.4.9-2.8,1.7-3.7,2.9s-1.3,2.6-1.6,4c-.4,1.5-.7,3.1-2,4.2-.7.6-1.7.9-2.5,1.2-.7.2-1.5.5-2,.9s-1.2,1.2-1.9,2c-1,1.2-2,2.3-2.8,2.6-.9.4-1.7.4-2.3.3-1.1,0-1.9,0-3.8,2.6-.5.7-1,2.1-1.6,3.7-1.3,3.4-2.7,6.9-4.8,7.7-.7.3-1.4.2-2.1-.2-.5-.3-1-1-1.9-2.3-1.1-1.6-3.2-4.7-4.5-4.7h0c-.3,0-.7.3-1.1.9-1.1,1.7-2,2.8-2.9,3.7-1.4,1.6-2.5,2.8-3.5,6.6-1.2,4.4-1.4,4.7-2.4,6.2-.4.6-.9,1.4-1.8,3s-1.7,3.8-2.5,6.1c-2.1,6.1-4.6,13-11.2,14.1-2.4.4-9.8-2.2-11.6-3.8-1.4-1.2-2-3.1-2.7-4.9-1.2-3.4-2.2-5.5-5.8-5-1.4.2-6.5,5.1-6.9,6.3,0,.4,0,.9.3,1.5.2.7.4,1.4.4,2.2-.3,4.4-3.2,6.9-5.4,8.9-1.2,1.1-2.3,2-2.5,2.9-.2.7-.1,1.7,0,2.7,0,1.3.1,2.5-.3,3.3s-1.2,1.2-3.5,2.9c-1.9,1.4-4.6,3.2-5.3,4.3-1.7,2.4-2.2,5.4-2.7,8.7-.3,2.2-.7,4.4-1.5,6.4-.7,1.9-3.6,5.1-7,8.7-.8.8-1.4,1.5-1.9,2-1.1,1-2.1,1.9-3.2,2.9-3.7,3.3-7.5,6.7-9.7,10.8l-.4.7c-1.4,2.6-2.8,5-1.2,7.5.3.4.7.7,1.2,1,1.1.7,2.8,1.7,1.9,4.6-.4,1.4-2,2.3-3.5,3.2-1.3.7-2.8,1.6-2.7,2.3,0,.3.6.5,1.5.8s1.9.6,2.4,1.5c.3.5.3,1.1,0,1.8l-.3.7h-.7c-1.7,0-5.2,2.5-7.7,4.3s-3.9,2.8-4.9,2.9c-1.2,0-2-.7-2.7-1.4-1-1.1-2.1-2.2-4.9-1.5-2,.5-4.9,2.6-7.5,4.6-2.7,2-5.1,3.7-6.8,4.1-2.9.6-5.2-2.5-6.6-4.3h0c-1.3-.2-1.6,0-1.7.2-.4.5.3,2.4.7,3.3.5,1.2.8,2.1.5,2.8-2.4,5.3-8.3,5.3-13,5.4-1.8,0-3.4,0-4.7.3-1,.2-2.6,1.1-4,1.9-1.7,1-3.3,1.9-4.5,2-2.9.3-5.6-2.2-7.9-4.4-1.4-1.4-3.1-2.9-4.1-3-2.3.8-5.1,3-8,5.2-4.5,3.4-9.1,7-13.3,7l.4-.4h0ZM349.6,747.4c3.5,1.6,3.6,6.1,3.6,8.6v1.7c.1.2.8.4,1.3.6.7.2,1.4.5,2,1,.6.6,1.1,1.5,1.5,2.4s.9,1.9,1.4,2.2c.6.5,1.5.6,2.4.7,1,0,2.2.3,3.2.9.9.5,1.6,1.5,2.3,2.5,1.1,1.5,2.3,3.1,4.2,3.6,3.7,1,8.8-3,13.3-6.4,3.1-2.4,6.1-4.7,8.8-5.6h.3c1.9,0,3.6,1.5,5.7,3.4,2,1.9,4.3,4.1,6.3,3.9.8,0,2.3-1,3.7-1.8,1.6-.9,3.3-1.9,4.6-2.1,1.5-.3,3.2-.3,5.1-.3,4.5,0,9.2,0,11.1-4.1,0-.3-.3-.9-.5-1.4-.7-1.7-1.5-3.8-.4-5.3.7-.9,2-1.3,4-1h.4l.6.9c1.1,1.6,2.9,3.9,4.6,3.6,1.3-.2,3.7-2,6-3.7,2.9-2.1,5.9-4.4,8.3-4.9,4-.9,5.7.9,6.8,2.1.5.5.8.8,1.1.8.5,0,2.5-1.5,3.9-2.5,2.5-1.8,5.3-3.9,7.6-4.5-.2,0-.5-.2-.7-.2-1.1-.3-2.7-.8-2.9-2.5-.2-2.1,1.9-3.2,3.7-4.3,1.1-.6,2.4-1.3,2.6-2,.4-1.5,0-1.7-1.1-2.4-.6-.4-1.4-.8-1.9-1.6-2.3-3.5-.4-6.9,1.1-9.6l.4-.7c2.4-4.4,6.4-7.9,10.1-11.3,1-.9,2.1-1.9,3.1-2.8.4-.5,1.1-1.2,1.9-2,2.4-2.5,5.9-6.3,6.6-8,.7-1.8,1-3.8,1.4-6,.5-3.3,1.1-6.7,3-9.5,1-1.4,3.5-3.2,5.8-4.8,1.2-.9,2.7-1.9,3-2.2.2-.3.1-1.3,0-2.2,0-1.1-.1-2.3.2-3.4.4-1.4,1.7-2.5,3.1-3.8,2.1-1.9,4.5-4,4.8-7.6,0-.4-.1-.9-.3-1.5-.2-.8-.5-1.6-.3-2.6.4-1.8,6.2-7.5,8.5-7.8,5.4-.8,6.9,3.1,8,6.3.6,1.6,1.2,3.2,2.2,4.1,1.4,1.3,8.3,3.6,9.9,3.3,5.5-.9,7.7-7.2,9.7-12.8.8-2.4,1.6-4.6,2.6-6.4.9-1.6,1.5-2.5,1.9-3.1.8-1.2.9-1.4,2.1-5.6,1.2-4.3,2.5-5.7,4-7.4.8-.9,1.7-1.9,2.7-3.5.7-1.2,1.7-1.8,2.7-1.8h0c2.4,0,4.5,3.1,6.2,5.6.5.7,1.1,1.5,1.3,1.7h.4c1.2-.4,2.6-4.1,3.6-6.5.7-1.8,1.3-3.3,1.9-4.2,2.3-3.2,3.8-3.5,5.5-3.4.5,0,1,0,1.4-.2s1.4-1.3,2.1-2.1c.8-.9,1.5-1.8,2.2-2.3.8-.6,1.7-.9,2.6-1.2.7-.2,1.4-.5,1.8-.8.7-.6,1-1.8,1.3-3.1.4-1.5.8-3.2,1.9-4.7,1.1-1.4,2.7-2.4,4.2-3.3,2.3-1.4,4.3-2.6,4.3-5.2s-.2-2.1-.4-3.3c-.3-1.9-.7-4,0-6.5.4-1.9,1.4-2.6,2.3-3.3,0,0,.3-.2.4-.3-.2-.3-.2-.6-.2-.8,0-1.2,1.2-2,2-2.5,0-.3,0-.6-.2-.9-.3-1-.6-2.2-.5-3.6.3-4.7,1.3-7.2,2.9-7.8,1.7-.5,3.2,1.2,3.7,1.8l34.2,28v-.3c.3-.8.7-1.9,1.1-3.1,1.3-3.6,2.8-8.1,4.3-10.2-.4-2.2-.7-4.5-.9-6.7-.4-4-.7-8-2.4-11.6-.4-.8-.9-1-1.6-1.2-.6-.2-1.2-.4-1.8-.9-1.9-1.7-2-4-2.2-5.8,0-1.1,0-2.2-.6-2.7-.7-.9-2.9-.8-4.8-.8s-3.2,0-4.5-.3c-1.7-.5-3.3-2-4.7-3.3-.9-.8-1.9-1.7-2.3-1.8-4.7-1.4-8.2.4-12,2.4-1.2.6-2.5,1.3-3.9,1.9-.8.4-1.8.4-2.6.5-.8,0-1.6,0-2.3.4-.4.2-3.6,2.3-4.9,3.2.4,1.1,1.1,3,.3,4.6-.5.8-1.3,1.4-2.5,1.6-1.6.3-11.7-.5-13.3-1-2-.6-3.2-2.6-4.5-4.5-1.5-2.5-2.4-3.7-3.7-3.4l-12,14.1c-3.5,2.3-5.1,1.5-6.8.2-.6-.4-1.1-.9-1.9-1-1.6-.4-2.1-.3-2.4-.2-.3.2-.5.8-.7,1.5-.2.8-.4,1.6-.9,2.5-2.8,4.8-19.9,18.7-24.9,21.1-.2,0-.4.2-.6.3-.8.5-1.7,1-3.4.5l-.7-.2v-47.8l-73.9-.8h-2.5l-.8-87.2c-1.5,0-4.5.6-5.1.8-.8.3-1.2.7-1.4,1.3-.5,1.4.7,3.7,1.8,5.8.8,1.6,1.6,3.1,1.8,4.5,1.8,11.1-.6,16.5-3.6,23.2-1.1,2.4-2.1,4.9-3.2,7.9-1.1,3.2-1.5,6.5-1.9,9.7-.3,2.6-.6,5-1.3,7.4-.4,1.4-1.2,2.8-2,4.1-.7,1.3-1.5,2.5-1.7,3.6-.2.7-.2,1.5-.1,2.4,0,1,0,2-.2,3-.2.8-.9,1.5-1.6,2.5-1.1,1.4-2.5,3.1-2.9,5.1-.3,1.5-.2,3-.1,4.5.1,3,.3,6.1-1.9,9.4-.6.9-2.1,1.7-4.4,2.9-1.5.8-3,1.5-3.9,2.3-2.8,2.2-5.2,5.4-7.5,8.5-2.8,3.8-5.7,7.6-9.5,9.8-.9.5-2,.7-3.1.9-.8,0-1.6.3-2.2.5s-1.2.7-1.8,1.2c-1,.7-1.9,1.4-3,1.6-1.9.3-2.8-.9-3.7-1.9-1.1-1.4-2.2-2.7-5.9-2-.9.3-4.9,3.6-5.5,4.5-.6.8-1,1.7-1.4,2.6-.1.3-.2.6-.4.9l2.4.4-.5,1.2c-.3.7-1,1-1.5,1.3h-.3l-.2.3h-2c-1.6,0-3.8,0-4.7.6-.1,0-.3.6-.3.9-.2.6-.3,1.3-.8,1.8-.4.5-.9,1-1.2,1.4-3.3,3.8-4.3,4.9-3.4,11.6v.6l-3.6,2.4c3.2,4,3.6,7.3,1.9,12.6l-.3.8-4.2-.8-4.8,7.6-.9-.7c-2.8-2.2-2.4-4.8-2.1-7,.2-1.3.4-2.6,0-3.8-.2-.4-.8-.6-1.7-.9-1.3-.4-3.2-1-3.5-3.3-3.6,1.1-7.6,5.8-8.4,9.4-.2,1-.2,2.3-.2,3.7,0,2.2,0,4.5-.9,6.1-.7,1-1.8,1.3-2.9,1.5-.9.2-1.6.4-1.8.8,0,1.6.6,3.7,1.1,6,1.1,4.5,2.3,9.3,0,11.8-1.2,1.3-3,1.8-5.5,1.6-2.6,8.6-5.1,16-15.7,17.4-1.7.2-3.4.2-5.1,0h-2.5v10.8c0,1.4-.6,2.8-1.4,4.4-1.2,2.6-2.8,5.9-1.7,10.6.4,1.9,1.8,2.8,3.3,3.8,1,.7,2.1,1.4,2.9,2.4.6.8.9,1.7,1.1,2.5.2.6.4,1.1.6,1.6.5.9,1.1,1.5,1.6,2,1.4,1.6,2.3,2.8,1.3,6.3,3.5.8,4.1,3.4,4.6,5.6.2,1.1.5,2,1,2.9.4.6,1,.9,1.7,1.4.9.6,2,1.2,2.7,2.4.9,1.5,1.2,3.2,1.4,4.8.3,1.6.5,3.2,1.4,4.5,1.3,1.9,3.5,2.9,5.6,3.9,1.8.8,3.5,1.6,4.6,2.9,1,1.2,1.4,2.8,1.7,4.1.1.6.3,1.4.5,1.6.2.2,1.3.2,2,.3,1.1,0,2.3,0,3.3.5.9.3,1.2.7,1.5,1.1,0,0,.3.4,3.3.7h5.9l-4.3,5.7v.2ZM430.4,758.7h0ZM430.5,758.5h0ZM378.7,578h0ZM615.3,573.1h0Z"/>
  </g>
  <g>
    <path class="st6" d="M757.4,666.9c-2.5-.5-3-4.1-4.5-5.7l.4,4.1c-4.3-5.3-4-4.1-8.9-7.8-5.3-4-4.5-8.9-3.7-15,2.5,3,1.1,7.7,2.9,10.9,1.5,2.6,7.4,4.7,9.7,7.4,1.6,1.8,2.2,4.4,4,6.2h0Z"/>
    <path class="st2" d="M754.6,668.5l-2.1-2.6c-3-3.7-3.6-4.1-5.5-5.3-.8-.5-1.8-1.2-3.2-2.3-5.7-4.3-5-9.5-4.2-15.6l.4-2.6,1.5,1.8c1.6,1.9,1.8,4.2,2,6.5.2,1.7.3,3.3,1,4.5s2.7,2.4,4.7,3.6c1.8,1.1,3.8,2.3,4.9,3.6.8.9,1.4,2,2,3.1s1.2,2.2,2,3l1.7,1.7h-2.6c-1.3-.3-2.2-1.2-2.8-2.1l.3,2.8h-.1ZM741.2,646.3c-.4,4.2,0,7.5,3.8,10.4,1.4,1.1,2.4,1.7,3.2,2.2,1.4,1,2.3,1.5,3.8,3.3l-.2-1.5c-1-.8-2.4-1.7-3.7-2.5-2.3-1.4-4.5-2.7-5.4-4.3s-1.1-3.5-1.3-5.3c0-.8,0-1.5-.3-2.2h.1Z"/>
  </g>
  <g>
    <path class="st6" d="M938.9,434.9c-.3,2.7,4,2,3.2,5.1-1.2,3.4-4.9,2-6.4,4.6-.6-2.9-2.3-4.4-4.9-5.7.8-.2,2.3.3,3.5-.1.3-.1,4.4-3.7,4.6-3.9h0Z"/>
    <path class="st2" d="M935.2,447.4l-.5-2.5c-.5-2.3-1.7-3.7-4.3-5l-2.3-1.1,2.4-.7c.5-.2,1.1-.1,1.7,0,.6,0,1.2.1,1.7,0,.6-.5,4-3.4,4.4-3.7l1.9-1.9-.3,2.7c0,.6.2.8,1.1,1.3,1,.6,2.6,1.5,2,3.9-.8,2.4-2.6,2.9-4.1,3.4-1.2.4-2,.7-2.5,1.5l-1.3,2.2h0ZM934.1,439.9c.8.7,1.5,1.7,2,2.9.7-.5,1.5-.7,2.3-1,1.5-.5,2.3-.8,2.8-2.1.2-.8,0-1-1.1-1.6-.5-.3-1.2-.7-1.6-1.4-1.3,1.2-3.3,2.9-3.8,3-.2,0-.4.1-.6.2h0Z"/>
  </g>
  <g>
    <polygon class="st6" points="860 654.7 860 656.3 815.2 654.7 860 654.7"/>
    <polygon class="st2" points="861 657.4 815.1 655.7 815.2 653.7 861 653.7 861 657.4"/>
  </g>
  <g>
    <path class="st6" d="M457,446.3v87.9h-.8l-.8-87.1c-.8-.3-5.6.4-6.5.8,2.2-2,5.4-1.6,8.1-1.6h0Z"/>
    <path class="st2" d="M458,535.4l-1.2-.2h-1.5l-.8-87.2c-1.5,0-4.5.6-5.1.8l-5.2,2.2,4.1-3.8c2.2-2,5.2-2,7.8-1.9h1v1h1v89.1h0Z"/>
  </g>
  <g>
    <path class="st6" d="M620.6,561.1l-3.2-.8c.2,2.4-.7,4.6-.9,6.9-.3,4.1,2.1,2.5-1.6,6.9-1.9-1.2,1.5-2.6,1.5-2.8,0-1.3-.9-2.8-.8-5,.2-3,1-10.1,4.9-5.3h0Z"/>
    <path class="st2" d="M615.1,575.4l-.7-.5c-.9-.6-1.1-1.2-1.1-1.7,0-1.2,1.2-2,2-2.5,0-.3,0-.6-.2-.9-.3-1-.6-2.2-.5-3.6.3-3.8.9-5.7,1.6-6.7v-.6h.4c.3-.2.6-.3.9-.4,1.8-.6,3.3,1.3,3.8,1.9l1.3,1.6h-2.3l-2-.5c0,1.1-.3,2.1-.5,3.1-.2.9-.4,1.8-.4,2.6,0,1.3,0,1.9.3,2.4.5,1.5.3,2.2-2.1,5.1l-.6.7h0Z"/>
  </g>
  <g>
    <path class="st6" d="M474.9,719.8c3-5.4,8.5-9.6,13-13.8-4.2,4.7-8.9,9.1-13,13.8h0Z"/>
    <path class="st2" d="M469.4,727.6l4.6-8.3c2.4-4.4,6.4-7.9,10.2-11.3,1-.9,2.1-1.8,3-2.8l1.4,1.4c-2,2.2-4.1,4.4-6.1,6.5-2.3,2.4-4.7,4.8-6.9,7.3l-6.2,7.1h0Z"/>
  </g>
  <g>
    <path class="st6" d="M806.2,534.2v.8h-272.7c.9,14.7-1.1,30.7,0,45.2.2,2.5-.4,2.1,2.4,2-1.1.5-1.6,1.3-3.2.8v-48.8h273.5Z"/>
    <path class="st2" d="M533.6,584.2c-.3,0-.7,0-1.2-.2l-.7-.2v-50.6h275.9l-.5,1.2h0v1.5h-272.7c.3,6.7,0,13.8-.1,20.6-.3,7.8-.5,16,0,23.5v1.1h1.4l4.7-.2-4.2,2.1c-.2,0-.4.2-.6.3-.6.3-1.2.7-2.2.7l.2.2h0Z"/>
  </g>
  <g>
    <path class="st6" d="M814.4,654.7l-4.1-57.8,4.1,57.8Z"/>
    <rect class="st2" x="811" y="597.2" width="2" height="57.9" transform="translate(-41.7 58.2) rotate(-4)"/>
  </g>
  <g>
    <path class="st6" d="M752.5,601c-1.4,1.2-3.8-1.7-4.1-3.2,1.6-.9,5.1,2.3,4.1,3.2Z"/>
    <path class="st2" d="M751.7,602.3c-.3,0-.6,0-.9-.2-1.6-.6-3.2-2.7-3.4-4.2v-.7l.5-.3c1.7-.9,4.1.7,5.2,2.2,1.1,1.6.3,2.5,0,2.7h0c-.4.4-.9.5-1.4.5h0ZM750,598.9c.4.6,1,1.2,1.5,1.3h0c-.3-.4-.8-1-1.5-1.3ZM751.8,600.2h0Z"/>
  </g>
  <g>
    <polygon class="st6" points="792.4 631.1 792 632.7 790.8 631.1 792.4 631.1"/>
    <polygon class="st2" points="792.4 635 788.8 630.1 793.7 630.1 792.4 635"/>
  </g>
  <g>
    <rect class="st6" x="804.6" y="684" width="2.4" height=".8"/>
    <rect class="st2" x="803.6" y="683" width="4.4" height="2.8"/>
  </g>
  <g>
    <path class="st6" d="M532.7,534.2c-23.8,0-51.6,1.8-74.9,0h-.8v-.8l75.7.8h0Z"/>
    <path class="st2" d="M482,536c-8.4,0-16.6-.2-24.3-.8h-.9l-.8-.2v-2.6l76.7.8v2c-8,0-16.2.2-24.9.4-8.5.2-17.2.4-25.8.4h0Z"/>
  </g>
  <g>
    <path class="st6" d="M736.2,518.7c1.9-2.2,4.8,0,4.9,2.4l2.4-1.6v4.5c-1.6,1.6-1.4-.3-2-1.2-1.5,1.8-3.3,2.3-5.3,1.6l2-.8c.9-2.9.9-4.2-2-4.9h0Z"/>
    <path class="st2" d="M738.7,526.1c-.7,0-1.6-.3-2.8-.7l-2.5-.9,4.1-1.6c.3-1,.5-1.9.3-2.3-.2-.3-.8-.6-1.7-.8l-1.6-.4,1.1-1.2c1-1.1,2.3-1.5,3.6-1.1,1.2.4,2.1,1.4,2.6,2.5l2.8-1.9v6.8l-.3.3c-.5.5-1.2,1.1-2,.9-.5,0-.8-.5-1-.9-.9,1-1.6,1.4-2.5,1.4h0ZM739.5,519.7c.6,1.2.2,2.6-.3,4.1.3-.2.6-.6.9-1v-1.6c0-.5-.3-1.1-.7-1.5h0ZM742,521.8l.3.5s0,.2.2.3v-1.2l-.5.3h0Z"/>
  </g>
  <g>
    <path class="st6" d="M532.7,534.2v.8l-74.9-.8c23.3,1.8,51.1,0,74.9,0Z"/>
    <path class="st2" d="M533.7,536l-30.5-.3c-15.5.3-31.3.6-45.4-.5v-2l45.4.5h4.6c8.7-.2,16.9-.4,24.9-.4h1v2.8h0Z"/>
  </g>
  <g>
    <path class="st6" d="M570.9,651.5h.8-.8Z"/>
    <path class="st2" d="M571.4,652.5h-.6l.2-2h.8v2h-.4Z"/>
  </g>
  <g id="_x3C_pineCreek_x3E_">
    <path class="st3" d="M598.1,392.6c0,17.3-14,31.3-31.3,31.3s-31.3-14-31.3-31.3,14-31.3,31.3-31.3,31.3,14,31.3,31.3Z"/>
    <path d="M566.9,425.3c-18.1,0-32.8-14.7-32.8-32.8s14.7-32.8,32.8-32.8,32.8,14.7,32.8,32.8-14.7,32.8-32.8,32.8ZM566.9,362.8c-16.4,0-29.8,13.4-29.8,29.8s13.4,29.8,29.8,29.8,29.8-13.4,29.8-29.8-13.4-29.8-29.8-29.8Z"/>
  </g>
  <g id="_x3C_susquehannaRiverNearSelinsgrove_x3E_">
    <path class="st3" d="M612.9,373.4c-4.9,0-8.8,3.9-8.8,8.8s3.9,8.8,8.8,8.8,8.8-3.9,8.8-8.8-3.9-8.8-8.8-8.8Z"/>
    <path d="M612.9,392.4c-5.7,0-10.3-4.6-10.3-10.3s4.6-10.3,10.3-10.3,10.3,4.6,10.3,10.3-4.6,10.3-10.3,10.3ZM612.9,374.9c-4,0-7.3,3.3-7.3,7.3s3.3,7.3,7.3,7.3,7.3-3.3,7.3-7.3-3.3-7.3-7.3-7.3Z"/>
  </g>
  <g id="_x3C_westBranchMahantagoCreek_x3E_">
    <path class="st3" d="M731.3,409.2c-17.8,0-32.2,14.4-32.2,32.2s14.4,32.2,32.2,32.2,32.2-14.4,32.2-32.2-14.4-32.2-32.2-32.2h0Z"/>
    <path d="M731.3,475.1c-18.6,0-33.7-15.1-33.7-33.7s15.1-33.7,33.7-33.7,33.7,15.1,33.7,33.7-15.1,33.7-33.7,33.7ZM731.3,410.7c-17,0-30.7,13.8-30.7,30.7s13.8,30.7,30.7,30.7,30.7-13.8,30.7-30.7-13.8-30.7-30.7-30.7Z"/>
  </g>
  <g id="_x3C_chillisquaqueCreek_x3E_">
    <path class="st3" d="M722.9,389.4c-3.8,0-6.8,3.1-6.8,6.8s3.1,6.8,6.8,6.8,6.8-3.1,6.8-6.8-3.1-6.8-6.8-6.8Z"/>
    <path d="M722.9,404.6c-4.6,0-8.3-3.7-8.3-8.3s3.7-8.3,8.3-8.3,8.3,3.7,8.3,8.3-3.7,8.3-8.3,8.3ZM722.9,390.9c-2.9,0-5.3,2.4-5.3,5.3s2.4,5.3,5.3,5.3,5.3-2.4,5.3-5.3-2.4-5.3-5.3-5.3Z"/>
  </g>
  <g id="_x3C_swataraCreek_x3E_">
    <path class="st3" d="M742.7,485.4c-4.3,0-7.8,3.5-7.8,7.8s3.5,7.8,7.8,7.8,7.8-3.5,7.8-7.8-3.5-7.8-7.8-7.8Z"/>
    <path d="M742.7,502.5c-5.1,0-9.3-4.2-9.3-9.3s4.2-9.3,9.3-9.3,9.3,4.2,9.3,9.3-4.2,9.3-9.3,9.3ZM742.7,486.9c-3.5,0-6.3,2.8-6.3,6.3s2.8,6.3,6.3,6.3,6.3-2.8,6.3-6.3-2.8-6.3-6.3-6.3Z"/>
  </g>
  <g id="_x3C_antietamCreek_x3E_">
    <path class="st3" d="M662.9,532.1c-16.5,0-29.8,13.3-29.8,29.8s13.3,29.8,29.8,29.8,29.8-13.3,29.8-29.8-13.3-29.8-29.8-29.8Z"/>
    <path d="M662.9,593.2c-17.3,0-31.3-14-31.3-31.3s14-31.3,31.3-31.3,31.3,14,31.3,31.3-14,31.3-31.3,31.3ZM662.9,533.6c-15.6,0-28.3,12.7-28.3,28.3s12.7,28.3,28.3,28.3,28.3-12.7,28.3-28.3-12.7-28.3-28.3-28.3Z"/>
  </g>
  <g id="_x3C_southBranchPotomacPetersburg_x3E_">
    <path class="st3" d="M574.2,583.1c-5.4,0-9.8,4.4-9.8,9.8s4.4,9.8,9.8,9.8,9.8-4.4,9.8-9.8-4.4-9.8-9.8-9.8Z"/>
    <path d="M574.2,604.1c-6.2,0-11.3-5.1-11.3-11.3s5.1-11.3,11.3-11.3,11.3,5.1,11.3,11.3-5.1,11.3-11.3,11.3ZM574.2,584.6c-4.6,0-8.3,3.7-8.3,8.3s3.7,8.3,8.3,8.3,8.3-3.7,8.3-8.3-3.7-8.3-8.3-8.3Z"/>
  </g>
  <g id="_x3C_cheatRiver_x3E_">
    <path class="st3" d="M515.6,605c-2.7,0-4.9,2.2-4.9,4.9s2.2,4.9,4.9,4.9,4.9-2.2,4.9-4.9-2.2-4.9-4.9-4.9Z"/>
    <path d="M515.6,616.3c-3.5,0-6.4-2.9-6.4-6.4s2.9-6.4,6.4-6.4,6.4,2.9,6.4,6.4-2.9,6.4-6.4,6.4ZM515.6,606.5c-1.9,0-3.4,1.5-3.4,3.4s1.5,3.4,3.4,3.4,3.4-1.5,3.4-3.4-1.5-3.4-3.4-3.4Z"/>
  </g>
  <g id="_x3C_greenbrierRiverCaldwell_x3E_">
    <path class="st3" d="M468.4,710.9c-2.7,0-4.9,2.2-4.9,4.9s2.2,4.9,4.9,4.9,4.9-2.2,4.9-4.9-2.2-4.9-4.9-4.9Z"/>
    <path d="M468.4,722.1c-3.5,0-6.4-2.9-6.4-6.4s2.9-6.4,6.4-6.4,6.4,2.9,6.4,6.4-2.9,6.4-6.4,6.4ZM468.4,712.4c-1.9,0-3.4,1.5-3.4,3.4s1.5,3.4,3.4,3.4,3.4-1.5,3.4-3.4-1.5-3.4-3.4-3.4Z"/>
  </g>
  <g id="_x3C_greenbrierRiverCaldwell_x3E_1" data-name="_x3C_greenbrierRiverCaldwell_x3E_">
    <path class="st3" d="M488.6,673.3c-2.7,0-4.9,2.2-4.9,4.9s2.2,4.9,4.9,4.9,4.9-2.2,4.9-4.9-2.2-4.9-4.9-4.9Z"/>
    <path d="M488.6,684.5c-3.5,0-6.4-2.9-6.4-6.4s2.9-6.4,6.4-6.4,6.4,2.9,6.4,6.4-2.9,6.4-6.4,6.4ZM488.6,674.8c-1.9,0-3.4,1.5-3.4,3.4s1.5,3.4,3.4,3.4,3.4-1.5,3.4-3.4-1.5-3.4-3.4-3.4Z"/>
  </g>
  <g id="_x3C_southBranchMoorefield_x3E_">
    <path class="st3" d="M881.9,418.9c-20.5,0-37.1,16.6-37.1,37.1s16.6,37.1,37.1,37.1,37.1-16.6,37.1-37.1-16.6-37.1-37.1-37.1Z"/>
    <path d="M881.9,494.7c-21.3,0-38.6-17.3-38.6-38.6s17.3-38.6,38.6-38.6,38.6,17.3,38.6,38.6-17.3,38.6-38.6,38.6ZM881.9,420.4c-19.6,0-35.6,16-35.6,35.6s16,35.6,35.6,35.6,35.6-16,35.6-35.6-16-35.6-35.6-35.6Z"/>
  </g>
  <path class="st2" d="M531.4,376.5c-.4,0-.8-.1-1.1-.4l-75.6-75.6H190.9c-.8,0-1.5-.7-1.5-1.5s.7-1.5,1.5-1.5h265.2l76.5,76.5c.6.6.6,1.5,0,2.1s-.7.4-1.1.4h-.1Z"/>
  <path class="st2" d="M645.1,523c-.4,0-.8,0-1.1-.4l-80.7-80.7H221.9c-.8,0-1.5-.7-1.5-1.5s.7-1.5,1.5-1.5h342.7l81.5,81.5c.6.6.6,1.5,0,2.1s-.7.4-1.1.4h0Z"/>
  <path class="st2" d="M419.3,762.3H13.5c-.8,0-1.6-.7-1.6-1.5s.7-1.5,1.6-1.5h404.6l36.8-35.4c.6-.6,1.6-.6,2.2,0s.6,1.5,0,2.1l-37.6,36.2h-.2Z"/>
  <path class="st2" d="M470.4,659.7H131.9c-.8,0-1.6-.7-1.6-1.5s.7-1.5,1.6-1.5h337.3l36.8-35.4c.6-.6,1.6-.6,2.2,0s.6,1.5,0,2.1l-37.6,36.2h-.2Z"/>
  <path class="st2" d="M524.8,544l37.6,36.2c.6.6.6,1.5,0,2.1s-1.6.6-2.2,0l-36.8-35.4H82.3c-.8,0-1.6-.7-1.6-1.5s.7-1.5,1.6-1.5h442.5Z"/>
  <path class="st2" d="M729.7,384.1c-.4,0-.8-.1-1.1-.4-.6-.6-.6-1.5,0-2.1l118-118h454.9c.8,0,1.5.7,1.5,1.5s-.7,1.5-1.5,1.5h-453.6l-117.1,117.1c-.3.3-.7.4-1.1.4h0Z"/>
  <path class="st2" d="M1197.2,623.4h-332.7l-113.8-113.8c-.6-.6-.6-1.5,0-2.1s1.5-.6,2.1,0l113,113h331.5c.8,0,1.5.7,1.5,1.5s-.7,1.5-1.5,1.5h0Z"/>
  <path class="st2" d="M1220.9,521.4h-261.6l-36.2-36.2c-.6-.6-.6-1.5,0-2.1s1.5-.6,2.1,0l35.4,35.4h260.4c.8,0,1.5.7,1.5,1.5s-.7,1.5-1.5,1.5h0Z"/>
  <path class="st2" d="M1261,371c.8,0,1.5.7,1.5,1.5s-.7,1.5-1.5,1.5h-464.7l-35.4,35.4c-.6.6-1.5.6-2.1,0s-.6-1.5,0-2.1l36.2-36.2h466Z"/>
  <path class="st2" d="M609.1,366.3c-.4,0-.8-.1-1.1-.4l-154.9-154.9H72.6c-.8,0-1.5-.7-1.5-1.5s.7-1.5,1.5-1.5h381.8l155.8,155.8c.6.6.6,1.5,0,2.1s-.7.4-1.1.4Z"/>
  <text class="st0" transform="translate(71.1 173.6)"><tspan x="0" y="0">Susquehana River</tspan><tspan x="0" y="28.8">18 Samples </tspan></text>
  <text class="st0" transform="translate(1032.1 335.1)"><tspan x="0" y="0">Manhantago Creek</tspan><tspan x="86.4" y="28.8">66 Samples</tspan></text>
  <text class="st0" transform="translate(1006.5 482.7)"><tspan x="0" y="0">S.B. Moorefield</tspan><tspan x="72" y="28.8">73 Samples</tspan></text>
  <text class="st0" transform="translate(1011.6 586)"><tspan x="0" y="0">Swatara Creek</tspan><tspan x="43.2" y="28.8">16 Samples</tspan></text>
  <path class="st2" d="M1152.4,746.6h-599.2l-57.9-57.9c-.6-.6-.6-1.5,0-2.1s1.5-.6,2.1,0l57.1,57.1h598c.8,0,1.5.7,1.5,1.5s-.7,1.5-1.5,1.5h0Z"/>
  <g class="st1">
    <text class="st0" transform="translate(894.7 709)"><tspan x="0" y="0">Greenbrier Seebert</tspan><tspan x="115.2" y="28.8">10 Samples</tspan></text>
  </g>
  <text class="st0" transform="translate(1028.3 227.5)"><tspan x="0" y="0">Chillisquaque Creek</tspan><tspan x="129.6" y="28.8">14 Samples</tspan></text>
  <text class="st0" transform="translate(189.4 262.7)"><tspan x="0" y="0">Pine Creek</tspan><tspan x="0" y="28.8">64 Samples </tspan></text>
  <text class="st0" transform="translate(220.7 403.7)"><tspan x="0" y="0">Antietam Creek</tspan><tspan x="0" y="28.8">61 Samples </tspan></text>
  <text class="st0" transform="translate(81.8 508.4)"><tspan x="0" y="0">S.B. Potamac Petersburg</tspan><tspan x="0" y="28.8">20 Samples </tspan></text>
  <text class="st0" transform="translate(131.6 621.9)"><tspan x="0" y="0">Cheat River</tspan><tspan x="0" y="28.8">10 Samples</tspan></text>
  <text class="st0" transform="translate(11.9 723.4)"><tspan x="0" y="0">Greenbrier Caldwell</tspan><tspan x="0" y="28.8">10 Samples</tspan></text>
</svg>